<?xml version="1.0" standalone="no"?>
<!DOCTYPE svg PUBLIC "-//W3C//DTD SVG 20010904//EN"
 "http://www.w3.org/TR/2001/REC-SVG-20010904/DTD/svg10.dtd">
<svg version="1.0" xmlns="http://www.w3.org/2000/svg"
 width="500.000000pt" height="500.000000pt" viewBox="0 0 500.000000 500.000000"
 preserveAspectRatio="xMidYMid meet">

<g transform="translate(0.000000,500.000000) scale(0.100000,-0.100000)"
fill="#000000" stroke="none">
<path d="M0 2500 l0 -2500 2500 0 2500 0 0 2500 0 2500 -2500 0 -2500 0 0
-2500z m2705 960 c321 -46 588 -198 745 -426 50 -72 120 -213 120 -241 0 -10
-48 -13 -205 -13 l-204 0 -11 43 c-51 196 -127 335 -245 445 -87 81 -184 129
-309 150 -89 15 -103 15 -193 0 -209 -36 -366 -158 -473 -368 -26 -52 -71
-181 -84 -242 l-6 -28 -205 0 c-139 0 -205 3 -205 11 0 26 68 169 112 234 60
91 193 217 285 273 131 79 297 137 458 161 84 12 336 13 420 1z m-912 -897
c-20 -4 -23 -11 -25 -56 l-2 -52 -3 52 c-3 44 -7 52 -26 56 -12 2 1 4 28 4 28
0 40 -2 28 -4z m255 -21 c2 -13 -1 -29 -7 -36 -7 -9 -7 -16 1 -24 6 -6 8 -15
5 -19 -4 -4 -14 3 -23 15 -19 27 -44 29 -44 2 0 -11 -4 -20 -10 -20 -5 0 -10
25 -10 56 l0 55 43 -3 c35 -3 43 -7 45 -26z m248 -30 c13 -29 18 -52 13 -52
-5 0 -12 7 -15 15 -8 21 -61 19 -73 -2 -5 -10 -12 -15 -15 -12 -9 9 43 111 55
107 7 -2 22 -27 35 -56z m262 46 c17 -17 15 -58 -5 -80 -9 -10 -30 -18 -50
-18 l-33 0 0 55 0 55 38 0 c21 0 43 -5 50 -12z m192 -43 c0 -30 -4 -55 -10
-55 -5 0 -10 25 -10 55 0 30 5 55 10 55 6 0 10 -25 10 -55z m210 18 l25 -37 3
37 c5 58 22 43 22 -18 0 -30 -4 -55 -9 -55 -5 0 -23 19 -40 42 l-31 42 0 -42
c0 -23 -4 -42 -10 -42 -5 0 -10 25 -10 55 0 66 14 71 50 18z m300 29 c0 -5
-13 -7 -30 -4 -24 3 -32 0 -41 -22 -9 -20 -9 -29 1 -41 16 -20 60 -20 60 0 0
8 5 15 10 15 6 0 10 -9 10 -20 0 -41 -98 -34 -101 7 -2 28 2 47 13 61 12 13
78 17 78 4z m-1408 -423 c30 -125 86 -251 154 -346 47 -66 144 -154 199 -180
l32 -15 52 55 c68 72 132 100 224 99 86 0 178 -42 231 -103 34 -40 34 -40 65
-25 53 28 162 138 212 214 56 85 102 199 131 323 l21 89 208 0 209 0 -6 -27
c-14 -59 -66 -182 -102 -241 -75 -125 -192 -240 -324 -319 -77 -46 -223 -107
-281 -118 -20 -4 -37 -13 -37 -20 0 -20 85 -130 122 -159 52 -39 125 -68 189
-73 55 -5 59 -8 59 -31 l0 -25 -97 7 c-230 15 -377 86 -442 214 l-20 40 -149
0 c-477 1 -842 195 -1017 542 -26 51 -75 183 -75 202 0 4 93 8 208 8 l207 0
27 -111z"/>
<path d="M1980 2535 c0 -23 4 -26 28 -23 19 2 27 9 27 23 0 14 -8 21 -27 23
-24 3 -28 0 -28 -23z"/>
<path d="M2247 2536 c-11 -28 -8 -36 13 -36 23 0 25 9 7 34 -13 18 -14 18 -20
2z"/>
<path d="M2490 2520 c0 -36 3 -40 25 -40 20 0 45 24 45 44 0 12 -33 36 -51 36
-16 0 -19 -7 -19 -40z"/>
<path d="M2435 1701 c-16 -4 -39 -13 -51 -19 -24 -13 -94 -88 -94 -101 0 -18
107 -36 212 -36 58 0 109 3 113 7 11 10 -47 109 -75 129 -32 23 -67 29 -105
20z"/>
</g>
</svg>
