<!DOCTYPE svg PUBLIC "-//W3C//DTD SVG 1.1//EN" "http://www.w3.org/Graphics/SVG/1.1/DTD/svg11.dtd">
<!-- Uploaded to: SVG Repo, www.svgrepo.com, Transformed by: SVG Repo Mixer Tools -->
<svg fill="#f0b90b" width="800px" height="800px" viewBox="0 0 24 24" role="img" xmlns="http://www.w3.org/2000/svg">
<g id="SVGRepo_bgCarrier" stroke-width="0"/>
<g id="SVGRepo_tracerCarrier" stroke-linecap="round" stroke-linejoin="round"/>
<g id="SVGRepo_iconCarrier">
<path d="m16.624 13.92 2.717 2.716-7.353 7.353-7.352-7.352 2.717-2.717 4.636 4.66 4.635-4.66zm4.637-4.636L24 12l-2.715 2.716L18.568 12l2.693-2.716zm-9.272 0 2.716 2.692-2.717 2.717L9.272 12l2.716-2.715zm-9.273 0L5.41 12l-2.692 2.692L0 12l2.716-2.716zM11.99.01l7.352 7.33-2.717 2.715-4.636-4.636-4.635 4.66-2.717-2.716L11.989.011z"/>
</g>
</svg>