<!DOCTYPE svg PUBLIC "-//W3C//DTD SVG 1.1//EN" "http://www.w3.org/Graphics/SVG/1.1/DTD/svg11.dtd">
<!-- Uploaded to: SVG Repo, www.svgrepo.com, Transformed by: SVG Repo Mixer Tools -->
<svg fill="#ffffff" width="800px" height="800px" viewBox="-25.6 -25.6 307.20 307.20" id="Flat" xmlns="http://www.w3.org/2000/svg" stroke="#ffffff">
<g id="SVGRepo_bgCarrier" stroke-width="0">
<rect x="-25.6" y="-25.6" width="307.20" height="307.20" rx="153.6" fill="#ccc" strokewidth="0"/>
</g>
<g id="SVGRepo_tracerCarrier" stroke-linecap="round" stroke-linejoin="round"/>
<g id="SVGRepo_iconCarrier"> <path d="M208,32H48A16.01833,16.01833,0,0,0,32,48V208a16.01833,16.01833,0,0,0,16,16H208a16.01833,16.01833,0,0,0,16-16V48A16.01833,16.01833,0,0,0,208,32ZM149.457,177.45654a35.9963,35.9963,0,0,1-50.90723,0,8.00018,8.00018,0,0,1,11.31446-11.31347,19.99683,19.99683,0,1,0,14.13965-34.13868,7.99971,7.99971,0,0,1-6.55469-12.58642L136.63281,92H104a8,8,0,0,1,0-16h47.99414a7.99973,7.99973,0,0,1,6.55469,12.58643L137.5332,118.62305A36.01783,36.01783,0,0,1,149.457,177.45654Z"/> </g>
</svg>