<!DOCTYPE svg PUBLIC "-//W3C//DTD SVG 1.1//EN" "http://www.w3.org/Graphics/SVG/1.1/DTD/svg11.dtd">
<!-- Uploaded to: SVG Repo, www.svgrepo.com, Transformed by: SVG Repo Mixer Tools -->
<svg width="800px" height="800px" viewBox="0 0 24 24" fill="none" xmlns="http://www.w3.org/2000/svg" stroke="#ffffff">
<g id="SVGRepo_bgCarrier" stroke-width="0"/>
<g id="SVGRepo_tracerCarrier" stroke-linecap="round" stroke-linejoin="round"/>
<g id="SVGRepo_iconCarrier"> <path fill-rule="evenodd" clip-rule="evenodd" d="M7 8C7 6.89543 7.89543 6 9 6H15C16.1046 6 17 6.89543 17 8V10C17 11.1046 16.1046 12 15 12H9C7.89543 12 7 11.1046 7 10V8ZM9 8H15V10H9V8Z" fill="#ffffff"/> <path fill-rule="evenodd" clip-rule="evenodd" d="M5 1C3.89543 1 3 1.89543 3 3V21C3 22.1046 3.89543 23 5 23H17C19.2091 23 21 21.2091 21 19V5C21 2.79086 19.2091 1 17 1H5ZM5 4C5 3.44772 5.44772 3 6 3H17C18.1046 3 19 3.89543 19 5V19C19 20.1046 18.1046 21 17 21H6C5.44772 21 5 20.5523 5 20V4Z" fill="#ffffff"/> </g>
</svg>