<svg xmlns="http://www.w3.org/2000/svg" width="500" height="500" viewBox="0 0 500 500" version="1.1"><path d="M 237.500 153.080 C 192.043 156.693, 158.820 179.401, 144.008 216.980 L 142.029 222 162.976 222 L 183.923 222 185.017 217.750 C 192.435 188.922, 206.750 170.057, 227.648 161.565 C 244.805 154.593, 266.858 156.809, 282.638 167.090 C 296.715 176.262, 308.689 194.285, 313.802 214 L 315.748 221.500 336.487 221.771 L 357.227 222.041 356.566 219.271 C 356.203 217.747, 354.339 213.165, 352.425 209.089 C 339.836 182.276, 313.119 162.467, 280.209 155.544 C 274.580 154.360, 248.013 151.588, 247.605 152.142 C 247.547 152.221, 243 152.642, 237.500 153.080 M 172 242.883 C 172 243.369, 172.900 244.002, 174 244.290 C 175.634 244.717, 176 245.654, 176 249.406 C 176 251.933, 176.450 254, 177 254 C 177.550 254, 178 251.750, 178 249 C 178 245.222, 178.367 244, 179.500 244 C 180.325 244, 181 243.550, 181 243 C 181 242.450, 178.975 242, 176.500 242 C 174.025 242, 172 242.398, 172 242.883 M 196.667 242.667 C 195.597 243.736, 195.899 254, 197 254 C 197.550 254, 198 253.325, 198 252.500 C 198 251.659, 198.892 251, 200.031 251 C 201.149 251, 202.322 251.675, 202.638 252.500 C 202.955 253.325, 203.896 254, 204.729 254 C 205.978 254, 206.021 253.730, 204.972 252.466 C 203.937 251.220, 203.957 250.449, 205.076 248.359 C 206.334 246.007, 206.251 245.622, 204.116 243.893 C 201.799 242.017, 197.950 241.383, 196.667 242.667 M 222.474 247.654 C 221.099 250.763, 220.239 253.572, 220.562 253.895 C 220.885 254.219, 221.589 253.700, 222.125 252.742 C 223.357 250.540, 226.790 250.500, 229.177 252.661 C 230.187 253.574, 231.180 254.136, 231.385 253.911 C 232.011 253.220, 226.807 242, 225.860 242 C 225.373 242, 223.850 244.544, 222.474 247.654 M 247 248 L 247 254 250.066 254 C 254.967 254, 257 252.394, 257 248.522 C 257 244.567, 254.157 242, 249.777 242 C 247.049 242, 247 242.107, 247 248 M 273 247.941 C 273 251.314, 273.443 254, 274 254 C 274.550 254, 275 251.552, 275 248.559 C 275 245.566, 274.550 242.840, 274 242.500 C 273.375 242.114, 273 244.156, 273 247.941 M 291 248 C 291 251.333, 291.444 254, 292 254 C 292.550 254, 293 252.132, 293 249.850 L 293 245.700 296.006 249.850 C 297.660 252.132, 299.460 254, 300.006 254 C 300.554 254, 301 251.308, 301 248 C 301 241.204, 299.277 239.785, 298.807 246.193 L 298.500 250.387 295.736 246.193 C 294.216 243.887, 292.528 242, 291.986 242 C 291.444 242, 291 244.700, 291 248 M 318.455 244.455 C 315.477 247.432, 315.361 249.361, 318 252 C 321.366 255.366, 327 254.360, 327 250.393 C 327 249.077, 326.550 248, 326 248 C 325.450 248, 325 248.900, 325 250 C 325 252.691, 320.467 252.741, 319.035 250.066 C 317.693 247.557, 317.708 247.434, 319.624 245.519 C 320.755 244.387, 322.195 244.077, 324.374 244.495 C 327.332 245.062, 327.396 245.011, 325.559 243.547 C 322.870 241.404, 321.305 241.604, 318.455 244.455 M 198 246.500 C 198 249.421, 200.958 249.961, 203.063 247.424 C 204.147 246.117, 204.126 245.692, 202.936 244.939 C 200.158 243.182, 198 243.864, 198 246.500 M 249 248.066 C 249 251.913, 249.149 252.116, 251.750 251.816 C 256.511 251.269, 255.700 244, 250.878 244 C 249.349 244, 249 244.755, 249 248.066 M 225 245.859 C 225 246.397, 224.727 247.548, 224.393 248.418 C 223.963 249.538, 224.374 250, 225.799 250 C 227.326 250, 227.685 249.512, 227.286 247.984 C 226.723 245.831, 225 244.229, 225 245.859 M 141.548 278.250 C 141.937 280.038, 143.521 284.793, 145.066 288.817 C 153.531 310.855, 172.440 329.890, 196 340.090 C 212.677 347.310, 239.754 351.968, 257 350.585 L 264.500 349.984 267.791 355.458 C 273.926 365.665, 284.201 371.804, 299.659 374.500 C 304.391 375.325, 311.384 376, 315.201 376 C 321.824 376, 322.125 375.898, 321.820 373.750 C 321.542 371.793, 320.692 371.400, 315.301 370.736 C 308.210 369.863, 301.484 367.233, 296.379 363.340 C 292.028 360.021, 283.406 348.140, 284.615 347.131 C 285.102 346.725, 288.875 345.354, 293 344.083 C 317.491 336.541, 339.356 318.992, 350.334 298.064 C 354.226 290.647, 359 278.399, 359 275.835 C 359 275.376, 349.559 275, 338.019 275 L 317.038 275 316.473 277.750 C 313.544 292.011, 309.120 304.227, 303.241 314.289 C 298.957 321.621, 289.365 331.915, 283.030 335.980 L 278.147 339.114 273.966 334.579 C 267.816 327.907, 260.345 324.676, 251 324.647 C 245.256 324.629, 242.424 325.145, 238.904 326.849 C 234.069 329.191, 228.527 333.851, 225.731 337.925 L 224.066 340.351 220.496 338.428 C 203.002 329.007, 189.218 307.227, 183.993 280.750 L 182.858 275 161.850 275 L 140.841 275 141.548 278.250 M 239.256 331.645 C 235.507 333.493, 228.679 340.671, 229.463 341.940 C 230.607 343.792, 240.997 345.468, 250.774 345.379 C 256.425 345.328, 261.292 345.041, 261.591 344.742 C 262.559 343.775, 257.146 334.260, 254.398 332.099 C 251.131 329.529, 243.983 329.314, 239.256 331.645" stroke="none" fill="#f0b90c" fill-rule="evenodd"/></svg>