<svg xmlns="http://www.w3.org/2000/svg" width="500" height="500" viewBox="0 0 500 500" version="1.1"><path d="M 237.500 153.080 C 192.043 156.693, 158.820 179.401, 144.008 216.980 C 142.029 222, 142.029 222, 162.976 222 C 183.923 222, 183.923 222, 185.017 217.750 C 191.105 194.090, 202.078 176.827, 217.354 166.879 C 240.960 151.504, 274.206 155.424, 293.222 175.822 C 302.366 185.631, 310.226 200.212, 313.802 214 C 315.748 221.500, 315.748 221.500, 336.487 221.771 C 360.315 222.082, 358.918 223.184, 352.446 209.176 C 344.058 191.023, 328.128 175.145, 308.265 165.140 C 301.642 161.805, 286.058 156.611, 278 155.054 C 273.175 154.122, 249.335 151.820, 248 152.158 C 247.725 152.228, 243 152.642, 237.500 153.080 M 172 242.883 C 172 243.369, 172.900 244.002, 174 244.290 C 175.634 244.717, 176 245.654, 176 249.406 C 176 251.933, 176.450 254, 177 254 C 177.550 254, 178 251.750, 178 249 C 178 245.222, 178.367 244, 179.500 244 C 180.325 244, 181 243.550, 181 243 C 181 242.450, 178.975 242, 176.500 242 C 174.025 242, 172 242.398, 172 242.883 M 196.667 242.667 C 195.597 243.736, 195.899 254, 197 254 C 197.550 254, 198 253.325, 198 252.500 C 198 251.659, 198.892 251, 200.031 251 C 201.149 251, 202.322 251.675, 202.638 252.500 C 203.498 254.741, 205.234 254.312, 204.512 252.038 C 204.169 250.959, 204.424 249.076, 205.078 247.855 C 206.097 245.949, 205.948 245.376, 204.022 243.817 C 201.784 242.005, 197.931 241.402, 196.667 242.667 M 222.474 247.654 C 221.099 250.763, 220.239 253.572, 220.562 253.895 C 220.885 254.219, 221.589 253.700, 222.125 252.742 C 223.384 250.492, 227.911 250.496, 229.558 252.748 C 231.925 255.986, 231.776 253.542, 229.251 247.750 C 227.873 244.588, 226.347 242, 225.860 242 C 225.373 242, 223.850 244.544, 222.474 247.654 M 247 247.869 C 247 254, 247 254, 250.066 254 C 254.937 254, 257 252.390, 257 248.587 C 257 244.626, 255.449 243.109, 250.589 242.321 C 247 241.738, 247 241.738, 247 247.869 M 273 247.941 C 273 251.314, 273.443 254, 274 254 C 274.550 254, 275 251.552, 275 248.559 C 275 245.566, 274.550 242.840, 274 242.500 C 273.375 242.114, 273 244.156, 273 247.941 M 291 248 C 291 251.333, 291.444 254, 292 254 C 292.550 254, 293 252.111, 293 249.803 C 293 245.606, 293 245.606, 296.087 249.803 C 297.784 252.111, 299.584 254, 300.087 254 C 300.589 254, 301 251.300, 301 248 C 301 241.212, 299.278 239.782, 298.807 246.180 C 298.500 250.360, 298.500 250.360, 295.614 246.180 C 294.027 243.881, 292.339 242, 291.864 242 C 291.389 242, 291 244.700, 291 248 M 318.455 244.455 C 315.477 247.432, 315.361 249.361, 318 252 C 321.366 255.366, 327 254.360, 327 250.393 C 327 249.077, 326.550 248, 326 248 C 325.450 248, 325 248.900, 325 250 C 325 252.691, 320.467 252.741, 319.035 250.066 C 317.693 247.557, 317.708 247.434, 319.624 245.519 C 320.755 244.387, 322.195 244.077, 324.374 244.495 C 327.332 245.062, 327.396 245.011, 325.559 243.547 C 322.870 241.404, 321.305 241.604, 318.455 244.455 M 198 246.500 C 198 249.421, 200.958 249.961, 203.063 247.424 C 204.147 246.117, 204.126 245.692, 202.936 244.939 C 200.158 243.182, 198 243.864, 198 246.500 M 249 248.066 C 249 251.913, 249.149 252.116, 251.750 251.816 C 256.511 251.269, 255.700 244, 250.878 244 C 249.349 244, 249 244.755, 249 248.066 M 225 245.859 C 225 246.397, 224.727 247.548, 224.393 248.418 C 223.963 249.538, 224.374 250, 225.799 250 C 227.326 250, 227.685 249.512, 227.286 247.984 C 226.723 245.831, 225 244.229, 225 245.859 M 141.020 276.250 C 141.072 279.553, 147.369 294.856, 151.676 302.143 C 160.337 316.800, 177.210 331.703, 193.452 339.041 C 210.296 346.651, 228.080 350.249, 249.573 350.397 C 264.646 350.500, 264.646 350.500, 267.864 355.717 C 275.789 368.564, 293.142 376, 315.201 376 C 321.824 376, 322.125 375.898, 321.820 373.750 C 321.542 371.793, 320.692 371.400, 315.301 370.736 C 308.210 369.863, 301.484 367.233, 296.379 363.340 C 292.028 360.021, 283.406 348.140, 284.615 347.131 C 285.102 346.725, 288.875 345.354, 293 344.083 C 323.128 334.805, 346.872 312.308, 356.541 283.879 C 357.894 279.903, 359 276.279, 359 275.825 C 359 275.371, 349.633 275, 338.184 275 C 317.368 275, 317.368 275, 314.694 285.560 C 308.851 308.632, 297.479 326.709, 282.937 336.040 C 278.147 339.114, 278.147 339.114, 273.966 334.579 C 267.816 327.907, 260.345 324.676, 251 324.647 C 240.486 324.615, 233.417 328.298, 226.072 337.635 C 223.909 340.385, 223.881 340.391, 220.686 338.670 C 203.201 329.254, 189.205 307.161, 183.993 280.750 C 182.858 275, 182.858 275, 161.929 275 C 145.842 275, 141.005 275.289, 141.020 276.250 M 239.256 331.645 C 235.507 333.493, 228.679 340.671, 229.463 341.940 C 230.595 343.771, 240.959 345.470, 250.728 345.424 C 256.354 345.398, 261.221 345.112, 261.545 344.788 C 262.549 343.785, 257.214 334.313, 254.398 332.099 C 251.131 329.529, 243.983 329.314, 239.256 331.645" stroke="none" fill="#f0b90c" fill-rule="evenodd"/><path d="M 0 250.002 C 0 500.004, 0 500.004, 250.250 499.752 C 500.500 499.500, 500.500 499.500, 500.752 249.750 C 501.004 0, 501.004 0, 250.502 0 C 0 0, 0 0, 0 250.002 M 0.492 250.500 C 0.492 388, 0.608 444.101, 0.750 375.170 C 0.892 306.238, 0.892 193.738, 0.750 125.170 C 0.608 56.601, 0.492 113, 0.492 250.500 M 237.500 153.080 C 192.043 156.693, 158.820 179.401, 144.008 216.980 C 142.029 222, 142.029 222, 162.976 222 C 183.923 222, 183.923 222, 185.017 217.750 C 191.105 194.090, 202.078 176.827, 217.354 166.879 C 240.960 151.504, 274.206 155.424, 293.222 175.822 C 302.366 185.631, 310.226 200.212, 313.802 214 C 315.748 221.500, 315.748 221.500, 336.487 221.771 C 360.315 222.082, 358.918 223.184, 352.446 209.176 C 344.058 191.023, 328.128 175.145, 308.265 165.140 C 301.642 161.805, 286.058 156.611, 278 155.054 C 273.175 154.122, 249.335 151.820, 248 152.158 C 247.725 152.228, 243 152.642, 237.500 153.080 M 172 242.883 C 172 243.369, 172.900 244.002, 174 244.290 C 175.634 244.717, 176 245.654, 176 249.406 C 176 251.933, 176.450 254, 177 254 C 177.550 254, 178 251.750, 178 249 C 178 245.222, 178.367 244, 179.500 244 C 180.325 244, 181 243.550, 181 243 C 181 242.450, 178.975 242, 176.500 242 C 174.025 242, 172 242.398, 172 242.883 M 196.667 242.667 C 195.597 243.736, 195.899 254, 197 254 C 197.550 254, 198 253.325, 198 252.500 C 198 251.659, 198.892 251, 200.031 251 C 201.149 251, 202.322 251.675, 202.638 252.500 C 203.498 254.741, 205.234 254.312, 204.512 252.038 C 204.169 250.959, 204.424 249.076, 205.078 247.855 C 206.097 245.949, 205.948 245.376, 204.022 243.817 C 201.784 242.005, 197.931 241.402, 196.667 242.667 M 222.474 247.654 C 221.099 250.763, 220.239 253.572, 220.562 253.895 C 220.885 254.219, 221.589 253.700, 222.125 252.742 C 223.384 250.492, 227.911 250.496, 229.558 252.748 C 231.925 255.986, 231.776 253.542, 229.251 247.750 C 227.873 244.588, 226.347 242, 225.860 242 C 225.373 242, 223.850 244.544, 222.474 247.654 M 247 247.869 C 247 254, 247 254, 250.066 254 C 254.937 254, 257 252.390, 257 248.587 C 257 244.626, 255.449 243.109, 250.589 242.321 C 247 241.738, 247 241.738, 247 247.869 M 273 247.941 C 273 251.314, 273.443 254, 274 254 C 274.550 254, 275 251.552, 275 248.559 C 275 245.566, 274.550 242.840, 274 242.500 C 273.375 242.114, 273 244.156, 273 247.941 M 291 248 C 291 251.333, 291.444 254, 292 254 C 292.550 254, 293 252.111, 293 249.803 C 293 245.606, 293 245.606, 296.087 249.803 C 297.784 252.111, 299.584 254, 300.087 254 C 300.589 254, 301 251.300, 301 248 C 301 241.212, 299.278 239.782, 298.807 246.180 C 298.500 250.360, 298.500 250.360, 295.614 246.180 C 294.027 243.881, 292.339 242, 291.864 242 C 291.389 242, 291 244.700, 291 248 M 318.455 244.455 C 315.477 247.432, 315.361 249.361, 318 252 C 321.366 255.366, 327 254.360, 327 250.393 C 327 249.077, 326.550 248, 326 248 C 325.450 248, 325 248.900, 325 250 C 325 252.691, 320.467 252.741, 319.035 250.066 C 317.693 247.557, 317.708 247.434, 319.624 245.519 C 320.755 244.387, 322.195 244.077, 324.374 244.495 C 327.332 245.062, 327.396 245.011, 325.559 243.547 C 322.870 241.404, 321.305 241.604, 318.455 244.455 M 198 246.500 C 198 249.421, 200.958 249.961, 203.063 247.424 C 204.147 246.117, 204.126 245.692, 202.936 244.939 C 200.158 243.182, 198 243.864, 198 246.500 M 249 248.066 C 249 251.913, 249.149 252.116, 251.750 251.816 C 256.511 251.269, 255.700 244, 250.878 244 C 249.349 244, 249 244.755, 249 248.066 M 225 245.859 C 225 246.397, 224.727 247.548, 224.393 248.418 C 223.963 249.538, 224.374 250, 225.799 250 C 227.326 250, 227.685 249.512, 227.286 247.984 C 226.723 245.831, 225 244.229, 225 245.859 M 141.020 276.250 C 141.072 279.553, 147.369 294.856, 151.676 302.143 C 160.337 316.800, 177.210 331.703, 193.452 339.041 C 210.296 346.651, 228.080 350.249, 249.573 350.397 C 264.646 350.500, 264.646 350.500, 267.864 355.717 C 275.789 368.564, 293.142 376, 315.201 376 C 321.824 376, 322.125 375.898, 321.820 373.750 C 321.542 371.793, 320.692 371.400, 315.301 370.736 C 308.210 369.863, 301.484 367.233, 296.379 363.340 C 292.028 360.021, 283.406 348.140, 284.615 347.131 C 285.102 346.725, 288.875 345.354, 293 344.083 C 323.128 334.805, 346.872 312.308, 356.541 283.879 C 357.894 279.903, 359 276.279, 359 275.825 C 359 275.371, 349.633 275, 338.184 275 C 317.368 275, 317.368 275, 314.694 285.560 C 308.851 308.632, 297.479 326.709, 282.937 336.040 C 278.147 339.114, 278.147 339.114, 273.966 334.579 C 267.816 327.907, 260.345 324.676, 251 324.647 C 240.486 324.615, 233.417 328.298, 226.072 337.635 C 223.909 340.385, 223.881 340.391, 220.686 338.670 C 203.201 329.254, 189.205 307.161, 183.993 280.750 C 182.858 275, 182.858 275, 161.929 275 C 145.842 275, 141.005 275.289, 141.020 276.250 M 239.256 331.645 C 235.507 333.493, 228.679 340.671, 229.463 341.940 C 230.595 343.771, 240.959 345.470, 250.728 345.424 C 256.354 345.398, 261.221 345.112, 261.545 344.788 C 262.549 343.785, 257.214 334.313, 254.398 332.099 C 251.131 329.529, 243.983 329.314, 239.256 331.645" stroke="none" fill="#141413" fill-rule="evenodd"/></svg>