<svg xmlns="http://www.w3.org/2000/svg" width="500" height="500" viewBox="0 0 500 500" version="1.1"><path d="M 239.750 152.706 C 240.988 152.944, 243.012 152.944, 244.250 152.706 C 245.488 152.467, 244.475 152.272, 242 152.272 C 239.525 152.272, 238.512 152.467, 239.750 152.706 M 255.750 152.706 C 256.988 152.944, 259.012 152.944, 260.250 152.706 C 261.488 152.467, 260.475 152.272, 258 152.272 C 255.525 152.272, 254.512 152.467, 255.750 152.706 M 240.250 172.689 C 241.213 172.941, 242.787 172.941, 243.750 172.689 C 244.713 172.438, 243.925 172.232, 242 172.232 C 240.075 172.232, 239.287 172.438, 240.250 172.689 M 184.437 176.250 L 181.500 179.500 184.750 176.563 C 186.537 174.948, 188 173.485, 188 173.313 C 188 172.540, 187.175 173.221, 184.437 176.250 M 319.500 181 C 323.320 184.850, 326.671 188, 326.946 188 C 327.221 188, 324.320 184.850, 320.500 181 C 316.680 177.150, 313.329 174, 313.054 174 C 312.779 174, 315.680 177.150, 319.500 181 M 192.966 195.750 L 187.500 201.500 193.250 196.034 C 198.592 190.956, 199.458 190, 198.716 190 C 198.560 190, 195.972 192.588, 192.966 195.750 M 306.500 196 C 309.209 198.750, 311.650 201, 311.925 201 C 312.200 201, 310.209 198.750, 307.500 196 C 304.791 193.250, 302.350 191, 302.075 191 C 301.800 191, 303.791 193.250, 306.500 196 M 159.951 207.097 C 158.801 209.350, 158.032 211.365, 158.242 211.575 C 158.451 211.785, 159.602 209.941, 160.798 207.478 C 163.524 201.869, 162.787 201.537, 159.951 207.097 M 184.232 205.750 C 181.643 209.489, 180.802 211, 181.308 211 C 181.542 211, 182.925 209.200, 184.381 207 C 187.340 202.529, 187.211 201.448, 184.232 205.750 M 340.071 209.500 C 340.071 210.050, 340.714 211.625, 341.500 213 C 342.286 214.375, 342.929 215.050, 342.929 214.500 C 342.929 213.950, 342.286 212.375, 341.500 211 C 340.714 209.625, 340.071 208.950, 340.071 209.500 M 177.951 216.097 C 176.801 218.350, 176.032 220.365, 176.242 220.575 C 176.451 220.785, 177.602 218.941, 178.798 216.478 C 181.524 210.869, 180.787 210.537, 177.951 216.097 M 195.314 220.750 C 194.264 221.713, 193.992 222.105, 194.709 221.622 C 195.426 221.140, 197.472 220.398, 199.256 219.975 C 202.230 219.269, 202.281 219.196, 199.861 219.102 C 198.409 219.046, 196.363 219.787, 195.314 220.750 M 300.744 219.975 C 302.528 220.398, 304.574 221.140, 305.291 221.622 C 306.008 222.105, 305.736 221.713, 304.686 220.750 C 303.637 219.787, 301.591 219.046, 300.139 219.102 C 297.719 219.196, 297.770 219.269, 300.744 219.975 M 206.921 224.250 C 208.145 225.868, 211.429 226, 250.515 226 C 289.853 226, 292.832 225.879, 293.452 224.250 C 293.986 222.847, 293.869 222.748, 292.859 223.750 C 291.033 225.563, 209.031 225.563, 206.998 223.750 C 205.806 222.687, 205.794 222.761, 206.921 224.250 M 248.911 229.750 C 278.610 229.940, 291.730 230.361, 292.684 231.152 C 293.759 232.045, 293.913 231.937, 293.416 230.641 C 292.843 229.149, 288.858 229.022, 249.643 229.239 L 206.500 229.478 248.911 229.750 M 150.232 240 C 150.232 241.925, 150.438 242.713, 150.689 241.750 C 150.941 240.787, 150.941 239.213, 150.689 238.250 C 150.438 237.287, 150.232 238.075, 150.232 240 M 170.232 242 C 170.232 243.925, 170.438 244.713, 170.689 243.750 C 170.941 242.787, 170.941 241.213, 170.689 240.250 C 170.438 239.287, 170.232 240.075, 170.232 242 M 349.272 245 C 349.272 247.475, 349.467 248.488, 349.706 247.250 C 349.944 246.012, 349.944 243.988, 349.706 242.750 C 349.467 241.512, 349.272 242.525, 349.272 245 M 329.272 246 C 329.272 248.475, 329.467 249.488, 329.706 248.250 C 329.944 247.012, 329.944 244.988, 329.706 243.750 C 329.467 242.512, 329.272 243.525, 329.272 246 M 170.252 260.500 C 170.263 262.700, 170.468 263.482, 170.707 262.238 C 170.946 260.994, 170.937 259.194, 170.687 258.238 C 170.437 257.282, 170.241 258.300, 170.252 260.500 M 329.232 260 C 329.232 261.925, 329.438 262.712, 329.689 261.750 C 329.941 260.788, 329.941 259.212, 329.689 258.250 C 329.438 257.288, 329.232 258.075, 329.232 260 M 150.252 261.500 C 150.263 263.700, 150.468 264.482, 150.707 263.238 C 150.946 261.994, 150.937 260.194, 150.687 259.238 C 150.437 258.282, 150.241 259.300, 150.252 261.500 M 349.252 261.500 C 349.263 263.700, 349.468 264.482, 349.707 263.238 C 349.946 261.994, 349.937 260.194, 349.687 259.238 C 349.437 258.282, 349.241 259.300, 349.252 261.500 M 197 270.391 C 197 270.605, 198.543 270.961, 200.430 271.182 C 202.316 271.402, 203.640 271.226, 203.371 270.791 C 202.887 270.008, 197 269.638, 197 270.391 M 296.629 270.791 C 296.360 271.226, 297.684 271.402, 299.570 271.182 C 301.457 270.961, 303 270.605, 303 270.391 C 303 269.638, 297.113 270.008, 296.629 270.791 M 206.247 274 L 207.743 276.500 249.740 276.761 C 288.842 277.004, 291.829 276.900, 293.070 275.261 C 294.206 273.761, 294.195 273.686, 293.002 274.750 C 291.928 275.708, 281.850 276, 249.922 276 L 208.244 276 206.497 273.750 C 204.750 271.501, 204.750 271.501, 206.247 274 M 204.814 283.119 C 203.336 284.703, 202.470 286, 202.889 286 C 203.309 286, 204.708 284.875, 206 283.500 L 208.349 281 250 281 L 291.651 281 294 283.500 C 295.292 284.875, 296.686 286, 297.097 286 C 297.509 286, 296.496 284.650, 294.846 283 L 291.846 280 249.673 280.119 L 207.500 280.237 204.814 283.119 M 176 283.373 C 176 284.453, 179.972 292, 180.541 292 C 180.816 292, 180.076 290.087, 178.897 287.750 C 176.579 283.153, 176 282.278, 176 283.373 M 192.500 308 C 195.766 311.300, 198.662 314, 198.937 314 C 199.212 314, 196.766 311.300, 193.500 308 C 190.234 304.700, 187.338 302, 187.063 302 C 186.788 302, 189.234 304.700, 192.500 308 M 306.462 308.250 L 301.500 313.500 306.750 308.538 C 309.637 305.808, 312 303.446, 312 303.288 C 312 302.541, 311.074 303.372, 306.462 308.250 M 319.473 323.250 L 312.500 330.500 319.750 323.527 C 323.738 319.692, 327 316.429, 327 316.277 C 327 315.543, 325.950 316.516, 319.473 323.250 M 256.250 331.689 C 257.212 331.941, 258.788 331.941, 259.750 331.689 C 260.712 331.438, 259.925 331.232, 258 331.232 C 256.075 331.232, 255.287 331.438, 256.250 331.689 M 201 339.493 C 201 340.170, 209.123 344.211, 209.575 343.758 C 209.785 343.549, 207.941 342.398, 205.478 341.202 C 203.015 340.005, 201 339.236, 201 339.493 M 239.264 351.718 C 240.784 351.947, 243.034 351.941, 244.264 351.704 C 245.494 351.467, 244.250 351.279, 241.500 351.286 C 238.750 351.294, 237.744 351.488, 239.264 351.718 M 255.750 351.706 C 256.988 351.944, 259.012 351.944, 260.250 351.706 C 261.488 351.467, 260.475 351.272, 258 351.272 C 255.525 351.272, 254.512 351.467, 255.750 351.706" stroke="none" fill="#9d8934" fill-rule="evenodd"/><path d="M 238.678 153.058 C 186.496 158.796, 146.907 205.687, 150.500 257.500 C 154.475 314.817, 203.833 357.006, 259.821 350.945 C 284.110 348.316, 302.178 339.813, 319.135 323.034 C 337.073 305.284, 346.024 287.206, 348.997 262.724 C 351.783 239.779, 344.130 211.637, 329.992 192.848 C 308.369 164.109, 274.076 149.166, 238.678 153.058 M 232.500 173.615 C 223.478 175.486, 207.153 183.429, 199.535 189.656 C 180.409 205.288, 169.982 227.099, 170.015 251.410 C 170.057 283.381, 186.094 309.451, 214.586 323.870 C 225.235 329.258, 232.333 331.025, 246 331.687 C 261.474 332.437, 271.169 330.493, 284.500 323.969 C 305.850 313.520, 319.983 296.964, 327.157 274 C 330.496 263.313, 330.532 242.143, 327.232 230.709 C 322.710 215.039, 313.579 200.845, 301.500 190.708 C 292.576 183.219, 277.124 175.569, 266.792 173.525 C 257.281 171.643, 241.812 171.684, 232.500 173.615 M 194.343 222.566 C 187.754 229.155, 197.989 239.318, 204.811 232.961 C 206.015 231.840, 207 230.490, 207 229.961 C 207 229.361, 223.162 229, 250 229 C 276.838 229, 293 229.361, 293 229.961 C 293 231.850, 297.425 235, 300.078 235 C 304.365 235, 307.400 231.892, 307.400 227.500 C 307.400 223.043, 304.352 220, 299.889 220 C 297.089 220, 293 222.967, 293 225 C 293 225.651, 278.241 226, 250.723 226 L 208.445 226 205.813 223 C 202.406 219.117, 197.960 218.949, 194.343 222.566 M 196.851 245.139 C 193.187 246.467, 191.369 251.062, 192.973 254.935 C 195.199 260.309, 203.129 260.969, 206.209 256.037 C 207.456 254.040, 208.309 254, 250 254 C 291.691 254, 292.544 254.040, 293.791 256.037 C 296.871 260.969, 304.801 260.309, 307.027 254.935 C 310.479 246.600, 298.562 240.323, 293.791 247.963 C 292.544 249.960, 291.690 250, 250.211 250 L 207.904 250 205.702 247.581 C 203.002 244.614, 200.330 243.877, 196.851 245.139 M 193.994 273.734 C 191.375 277.064, 191.932 281.642, 195.270 284.228 C 198.560 286.777, 201.777 286.377, 205.154 283 L 208.154 280 250 280 L 291.846 280 294.846 283 C 298.223 286.377, 301.440 286.777, 304.730 284.228 C 310.337 279.884, 307.387 271, 300.337 271 C 297.680 271, 296.175 271.734, 294.187 274 L 291.555 277 250 277 L 208.445 277 205.813 274 C 202.241 269.930, 197.078 269.814, 193.994 273.734" stroke="none" fill="#f9d33a" fill-rule="evenodd"/></svg>