<?xml version="1.0" standalone="no"?>
<!DOCTYPE svg PUBLIC "-//W3C//DTD SVG 20010904//EN"
 "http://www.w3.org/TR/2001/REC-SVG-20010904/DTD/svg10.dtd">
<svg version="1.0" xmlns="http://www.w3.org/2000/svg"
 width="1024.000000pt" height="1024.000000pt" viewBox="0 0 1024.000000 1024.000000"
 preserveAspectRatio="xMidYMid meet">

<g transform="translate(0.000000,1024.000000) scale(0.100000,-0.100000)"
fill="#000000" stroke="none">
<path d="M4875 8844 c-22 -2 -89 -9 -149 -14 -234 -23 -604 -99 -607 -124 -1
-6 -1 -14 0 -18 0 -5 -4 -8 -10 -8 -6 0 -8 7 -5 16 8 21 -22 14 -184 -41 -124
-43 -171 -61 -325 -128 -158 -68 -448 -224 -440 -237 2 -4 -2 -7 -9 -7 -20 0
-87 -44 -81 -53 3 -5 0 -12 -6 -16 -8 -5 -9 -3 -4 6 5 8 3 11 -6 8 -8 -3 -13
-11 -11 -17 1 -7 -2 -10 -8 -6 -13 8 -120 -67 -113 -79 4 -5 1 -6 -4 -3 -13 8
-89 -51 -85 -65 1 -5 -2 -7 -7 -4 -5 4 -44 -21 -86 -55 -60 -47 -74 -63 -64
-71 11 -7 9 -8 -5 -4 -25 8 -53 -13 -34 -26 10 -7 9 -8 -3 -6 -18 4 -89 -56
-89 -74 0 -9 3 -9 11 2 8 12 10 12 7 1 -2 -8 -12 -15 -21 -17 -10 -1 -15 2
-11 9 4 7 -30 -24 -74 -67 -45 -44 -78 -84 -75 -89 3 -6 1 -7 -5 -3 -12 7 -67
-56 -67 -76 0 -7 -7 -13 -15 -13 -8 -1 -14 -7 -12 -14 1 -7 -2 -10 -7 -7 -12
8 -53 -49 -43 -59 4 -5 2 -5 -4 -2 -6 4 -20 -3 -30 -14 -14 -16 -15 -22 -5
-28 10 -6 9 -10 -4 -14 -11 -5 -14 -3 -10 6 4 6 -9 -6 -28 -28 -19 -22 -32
-46 -29 -54 3 -9 1 -12 -6 -8 -12 8 -55 -47 -44 -57 4 -4 2 -6 -5 -4 -18 5
-134 -167 -127 -189 4 -13 3 -15 -4 -4 -12 16 -27 -3 -16 -21 4 -6 3 -8 -3 -5
-12 7 -79 -102 -75 -121 2 -8 -1 -11 -7 -7 -11 6 -15 -7 -12 -33 1 -7 -4 -11
-11 -10 -7 2 -12 -5 -12 -14 1 -10 -3 -15 -9 -11 -6 4 -8 0 -4 -11 4 -9 3 -15
-1 -12 -11 7 -75 -121 -67 -134 4 -6 1 -9 -5 -8 -7 2 -16 -8 -21 -22 -9 -24
-9 -24 7 -5 16 19 16 19 9 -5 -4 -14 -10 -31 -12 -37 -3 -7 2 -13 11 -13 9 0
16 -8 16 -19 0 -13 -9 -20 -30 -24 -21 -5 -30 -12 -30 -26 0 -10 -7 -21 -15
-25 -13 -5 -13 -1 0 31 8 19 15 37 15 40 0 2 4 1 10 -2 6 -3 7 1 4 10 -4 8 -1
22 6 30 7 9 8 15 2 15 -6 0 -25 -35 -42 -77 -50 -120 -60 -152 -49 -158 5 -4
9 -16 9 -28 -1 -22 -1 -22 -14 2 l-13 24 -9 -29 c-4 -16 -8 -33 -8 -39 -1 -5
-4 -12 -7 -15 -9 -7 -73 -216 -99 -323 -12 -48 -18 -97 -15 -110 5 -17 4 -19
-4 -7 -6 8 -11 10 -11 4 0 -6 -11 -75 -24 -155 -32 -194 -40 -279 -27 -279 6
0 11 15 12 33 1 31 1 31 9 7 6 -17 7 -8 3 26 -4 44 -2 57 18 83 19 26 29 31
66 31 l43 0 0 -140 0 -140 -40 0 -40 0 0 -40 0 -40 40 0 40 0 0 40 c0 33 3 40
20 40 13 0 20 -7 20 -20 0 -13 7 -20 20 -20 19 0 20 -7 20 -140 l0 -140 -40 0
-40 0 0 -40 0 -40 -41 0 -42 0 7 -38 c3 -20 6 -56 6 -79 0 -42 1 -43 35 -43
l35 0 0 80 0 80 40 0 40 0 0 -120 0 -120 -40 0 -40 0 0 -40 c0 -33 -3 -40 -20
-40 -17 0 -20 -7 -20 -40 0 -33 3 -40 20 -40 17 0 20 -7 20 -40 0 -33 -3 -40
-20 -40 -18 0 -20 -7 -20 -60 0 -53 2 -60 20 -60 13 0 20 -7 20 -20 0 -17 7
-20 40 -20 l40 0 0 -159 c0 -118 -3 -161 -12 -164 -10 -4 -9 -8 2 -16 12 -9
13 -14 3 -31 -15 -24 -17 -60 -3 -60 6 0 10 -4 10 -10 0 -5 -7 -6 -17 -3 -12
5 -14 3 -8 -7 5 -9 4 -11 -3 -6 -7 4 -12 2 -12 -3 0 -6 5 -11 11 -11 5 0 7 -4
4 -10 -3 -5 -1 -10 5 -10 6 0 9 -4 6 -9 -3 -5 1 -24 9 -42 8 -19 14 -28 15
-21 0 7 -5 22 -10 33 -17 31 9 49 69 49 44 0 51 -3 51 -20 0 -11 -4 -20 -9
-20 -5 0 -11 -10 -13 -22 -2 -18 -8 -22 -28 -19 -14 1 -28 8 -32 14 -4 6 -11
8 -15 3 -4 -4 1 -14 12 -22 11 -8 19 -18 17 -22 -2 -3 1 -8 7 -10 6 -2 11 2
11 9 0 7 3 9 6 6 4 -4 1 -13 -5 -21 -8 -10 -9 -16 -1 -21 16 -10 12 -28 -5
-22 -8 4 -17 2 -20 -2 -8 -13 90 -203 100 -194 4 5 5 3 1 -4 -9 -17 56 -136
66 -120 6 9 8 9 8 -1 0 -7 6 -10 13 -7 6 4 3 -1 -7 -9 -18 -14 -15 -20 6 -17
4 0 4 -7 1 -16 -5 -12 -3 -14 7 -8 8 5 11 4 6 -3 -9 -16 62 -132 82 -133 10 0
12 -3 4 -6 -8 -3 4 -28 38 -76 73 -105 99 -136 100 -115 0 9 -10 24 -22 32
-12 9 -20 16 -16 16 4 0 -8 14 -25 32 -20 20 -27 33 -19 36 6 2 12 17 12 33 0
27 2 29 40 29 l40 0 2 -52 c0 -29 0 -60 -1 -68 -10 -84 -8 -88 64 -179 118
-147 152 -184 164 -177 14 9 15 76 1 76 -9 0 -14 -14 -11 -32 3 -19 -27 -5
-47 22 -13 16 -19 30 -14 30 5 0 7 10 5 23 -4 21 -2 22 36 19 32 -3 41 -8 41
-23 0 -15 7 -19 40 -19 l40 0 0 -46 c0 -47 -15 -74 -39 -66 -7 2 -17 -2 -22
-9 -6 -10 -9 -11 -9 -1 0 6 -5 12 -12 12 -6 0 1 -13 16 -29 16 -16 35 -27 42
-24 8 3 14 0 14 -7 0 -6 -4 -8 -10 -5 -5 3 -10 2 -10 -2 0 -16 66 -74 74 -66
4 5 6 1 4 -7 -2 -9 3 -14 12 -12 8 2 12 0 8 -4 -11 -10 12 -35 25 -27 5 3 7 1
3 -5 -3 -6 4 -18 16 -26 17 -12 25 -13 37 -3 14 10 14 10 3 -4 -11 -14 -4 -24
46 -68 33 -28 62 -47 66 -43 4 4 6 2 4 -4 -2 -6 12 -23 30 -38 17 -15 32 -22
32 -15 0 6 -8 18 -17 25 -11 8 -13 13 -5 14 6 0 12 5 12 11 0 6 -9 8 -22 4
-22 -7 -22 -6 -6 11 16 17 18 16 37 -7 11 -13 20 -29 21 -36 0 -6 3 -20 6 -30
5 -15 4 -15 -5 -3 -6 8 -11 10 -11 4 0 -18 38 -47 51 -38 7 4 10 3 6 -3 -8
-13 59 -67 72 -58 5 3 13 0 17 -6 5 -8 2 -10 -7 -5 -8 4 -5 1 5 -8 10 -8 23
-13 29 -9 6 3 7 1 3 -5 -10 -16 15 -27 26 -11 7 11 8 10 6 -4 -2 -11 8 -24 27
-35 16 -9 36 -23 43 -30 21 -19 53 -34 60 -28 3 3 0 6 -6 6 -7 0 -12 5 -12 12
0 7 6 6 18 -4 9 -9 23 -13 30 -11 6 3 12 0 12 -6 0 -6 -8 -11 -17 -11 -22 -1
87 -70 234 -151 64 -34 117 -57 124 -53 7 4 9 3 6 -3 -4 -6 0 -13 8 -17 8 -3
17 -1 20 4 4 6 11 10 17 10 7 0 7 -5 -1 -14 -9 -10 -7 -15 6 -19 10 -4 34 -13
53 -22 l35 -15 -25 20 -25 20 83 0 c75 0 82 -2 82 -20 0 -17 7 -20 40 -20 33
0 40 -3 40 -20 0 -13 -7 -20 -18 -20 -10 0 -19 -7 -19 -15 0 -16 60 -41 65
-26 2 5 13 6 24 3 21 -5 21 -6 2 -12 -15 -6 -10 -10 24 -19 24 -7 50 -15 59
-18 11 -4 14 -2 9 5 -4 7 -15 12 -24 12 -22 0 -48 17 -40 25 4 4 24 -2 45 -13
21 -11 49 -25 63 -31 24 -10 24 -10 -5 -6 -16 3 -3 -4 30 -15 32 -11 65 -18
73 -15 7 2 11 1 8 -4 -8 -12 174 -53 188 -42 6 5 107 10 224 10 l212 2 0 -36
c0 -34 -1 -35 -40 -35 -27 0 -40 4 -40 14 0 18 -55 27 -105 17 -22 -5 -31 -10
-20 -11 19 -1 19 -2 1 -9 -13 -5 8 -11 66 -19 47 -7 93 -9 103 -6 9 4 20 2 24
-4 11 -18 304 -35 496 -29 291 10 518 41 803 109 86 21 128 35 120 41 -9 5 -5
6 8 2 13 -3 84 15 179 46 129 42 155 54 150 68 -5 12 -3 13 6 4 9 -9 23 -7 63
8 100 39 180 80 193 99 8 11 22 20 31 19 12 0 11 -3 -5 -9 -13 -5 -23 -12 -23
-14 0 -6 41 8 73 26 21 11 21 11 2 19 -20 9 -20 9 0 7 11 -2 26 1 34 6 10 6
12 5 7 -3 -6 -8 -1 -8 18 0 14 7 23 16 19 22 -4 6 -1 7 7 2 8 -5 18 -1 27 10
7 11 13 16 13 12 0 -9 109 46 162 80 21 14 35 30 31 36 -4 6 0 8 10 4 9 -3 24
2 34 11 11 9 12 13 3 7 -12 -7 -13 -7 -2 5 7 8 20 15 30 15 9 0 16 6 14 14 -2
8 3 11 11 8 12 -4 109 51 98 56 -8 4 20 47 30 47 6 0 3 -7 -6 -16 -28 -28 -8
-27 29 1 19 15 34 32 33 37 -1 6 5 13 13 15 13 4 13 3 0 -6 -8 -6 -10 -11 -5
-11 6 1 19 8 30 16 19 15 19 16 -23 54 -23 22 -48 38 -55 36 -7 -1 -8 -1 -3 2
4 2 -18 31 -50 63 -31 32 -62 55 -68 52 -6 -3 -8 -3 -4 2 11 11 -12 36 -25 28
-5 -3 -7 -1 -4 4 4 6 -3 19 -15 29 -12 11 -18 13 -13 5 6 -10 4 -12 -4 -7 -7
5 -10 11 -6 14 3 3 -14 26 -39 51 -68 72 -115 138 -122 177 -8 42 -10 42 -101
-24 -155 -112 -438 -268 -630 -348 -409 -170 -920 -256 -1338 -226 -812 60
-1487 375 -2055 958 -142 147 -226 250 -341 423 -231 347 -384 753 -440 1176
-19 139 -23 217 -23 430 -1 360 29 588 114 863 157 510 409 934 766 1288 156
155 286 261 460 377 489 324 984 482 1577 503 657 24 1256 -143 1792 -499 547
-364 972 -910 1180 -1519 126 -367 171 -662 162 -1061 -10 -458 -65 -722 -243
-1162 -46 -115 -87 -215 -90 -221 -3 -7 14 -18 43 -28 26 -9 65 -30 86 -47 21
-17 39 -29 40 -28 2 2 9 17 17 32 13 26 15 27 27 11 10 -14 13 -15 13 -3 0 8
-5 20 -12 27 -9 9 -9 12 1 12 7 0 9 5 5 12 -5 7 -3 8 6 3 7 -4 15 -3 19 3 4 7
12 8 21 1 12 -7 11 -10 -8 -15 -18 -5 -22 -13 -20 -33 2 -20 9 -27 31 -29 15
-2 27 1 27 7 0 6 5 11 10 11 6 0 10 -17 10 -37 0 -31 -5 -40 -25 -50 -22 -10
-25 -9 -26 10 -1 20 -2 20 -9 -3 l-8 -25 -7 23 c-4 12 -14 21 -23 20 -8 -2
-16 5 -18 15 -4 26 -10 31 -17 13 -7 -18 70 -89 86 -79 6 3 7 2 4 -4 -7 -11
126 -146 136 -138 4 3 5 2 2 -2 -6 -7 114 -133 126 -133 11 0 29 51 23 62 -4
6 -2 8 3 5 18 -11 129 185 117 205 -4 6 -3 8 3 5 6 -4 14 0 17 9 4 10 2 13 -7
9 -6 -4 -5 -1 3 7 8 7 30 41 48 76 28 51 31 66 21 78 -9 11 -9 20 0 41 10 21
9 28 -1 34 -7 4 -9 11 -5 15 12 12 41 -22 31 -38 -5 -7 -10 -22 -11 -33 -5
-27 12 -8 25 30 5 17 22 60 36 97 18 47 22 69 14 74 -7 4 -8 3 -4 -4 4 -7 2
-12 -4 -12 -7 0 -9 7 -6 16 3 9 6 18 6 21 0 3 6 0 13 -6 11 -8 19 6 41 72 16
47 25 90 21 102 -6 17 -5 17 5 5 9 -12 10 -8 5 20 -4 23 -3 30 3 22 6 -9 16
13 31 74 29 115 52 236 46 242 -3 3 -1 10 5 17 5 6 16 65 25 130 57 438 39
927 -51 1342 -16 72 -27 83 -51 53 -11 -13 -12 -12 -13 4 0 23 -15 12 -16 -12
-3 -51 -4 -52 -39 -52 l-35 0 0 120 0 120 -40 0 -40 0 0 40 c0 40 0 40 38 40
26 0 41 6 50 20 7 12 8 20 2 20 -5 0 -10 9 -10 20 0 17 -7 20 -40 20 l-40 0 0
-40 c0 -33 -3 -40 -20 -40 -18 0 -20 7 -20 80 0 73 -2 80 -20 80 -18 0 -20 7
-20 80 0 73 2 80 20 80 13 0 20 -7 20 -20 0 -13 7 -20 20 -20 13 0 20 -7 20
-19 0 -10 7 -25 16 -32 14 -11 18 -11 29 4 15 21 -1 77 -22 77 -7 0 -13 4 -13
9 0 5 -3 17 -7 27 -4 12 -3 15 5 10 7 -4 5 7 -5 28 -9 20 -20 36 -23 36 -4 0
-7 6 -7 13 -1 32 -53 125 -72 130 -22 5 -24 1 -21 -50 l2 -33 -61 0 -61 0 0
40 c0 33 3 40 20 40 13 0 20 -7 20 -20 0 -23 25 -27 46 -6 15 15 19 46 7 46
-13 0 -14 68 -1 76 7 4 8 3 4 -4 -4 -7 -2 -12 3 -12 6 0 11 -5 11 -11 0 -5 -4
-7 -10 -4 -6 3 -7 -1 -4 -9 7 -17 20 -21 28 -8 7 11 -63 132 -76 132 -6 0 -9
3 -5 6 3 3 -8 28 -25 55 -29 48 -46 64 -34 34 3 -8 1 -15 -4 -15 -6 0 -10 -5
-10 -11 0 -6 9 -9 20 -6 13 3 20 0 20 -8 0 -11 -6 -12 -30 -4 -16 6 -27 15
-24 20 3 5 0 9 -5 9 -6 0 -10 19 -10 43 1 23 3 35 6 25 2 -9 11 -19 19 -22 8
-3 -4 21 -26 54 -22 33 -45 60 -50 60 -6 0 -9 5 -7 12 1 7 -8 17 -20 23 -13 5
-23 13 -23 18 0 4 5 5 12 1 7 -4 2 7 -11 24 -12 18 -27 29 -33 26 -7 -4 -8 -2
-4 5 10 15 -13 43 -27 34 -6 -3 -7 -1 -3 5 9 15 -94 143 -108 135 -6 -3 -8 -3
-4 2 10 11 -42 76 -55 68 -5 -3 -7 -2 -4 4 4 6 -5 21 -20 34 -14 13 -23 18
-19 12 5 -9 2 -11 -9 -7 -9 4 -14 12 -11 19 7 20 -112 145 -132 139 -12 -4
-13 -3 -4 3 10 7 8 13 -7 27 -11 10 -25 15 -30 11 -6 -3 -11 0 -11 7 0 20
-119 130 -132 122 -6 -4 -8 -3 -5 3 6 9 -74 83 -90 83 -4 0 1 -7 11 -15 19
-15 19 -15 -1 -15 -15 0 -20 5 -18 18 4 24 -13 42 -32 35 -10 -4 -14 -2 -10 5
4 6 -7 21 -25 33 -17 13 -28 18 -25 12 4 -7 4 -14 -1 -17 -4 -2 -14 4 -21 16
-10 16 -10 19 1 12 10 -6 10 -4 -1 9 -10 12 -17 14 -26 7 -9 -8 -14 -6 -19 5
-4 11 -2 14 7 9 7 -5 7 -1 -2 10 -8 9 -20 15 -27 12 -7 -3 -16 0 -20 6 -5 7
-2 8 6 3 9 -6 11 -4 6 4 -5 7 -14 10 -22 7 -8 -3 -13 0 -11 7 1 7 -6 11 -15
11 -10 -1 -16 2 -13 6 6 10 -91 73 -103 66 -4 -2 -14 0 -22 6 -12 8 -11 8 5 3
13 -4 17 -3 10 4 -5 5 -16 11 -24 13 -8 2 -23 12 -35 22 -13 13 -21 16 -24 8
-2 -7 -8 -12 -13 -12 -6 0 -7 5 -4 10 3 6 -2 10 -12 11 -11 0 -13 3 -5 6 8 3
1 12 -20 23 -25 13 -38 15 -53 7 -18 -9 -18 -8 -7 5 15 18 0 34 -20 22 -7 -5
-8 -3 -3 6 6 10 4 12 -9 7 -9 -4 -15 -3 -12 1 7 12 -123 74 -136 66 -6 -4 -8
-3 -5 3 7 11 -229 114 -267 117 -13 0 -22 4 -20 7 10 17 -30 18 -43 2 -14 -17
-14 -17 -10 4 4 20 -5 25 -94 53 -54 18 -103 28 -110 24 -7 -4 -9 -3 -6 3 7
11 -188 66 -239 67 -18 1 -30 4 -28 7 4 6 -131 32 -286 55 -100 14 -628 28
-725 18z m-445 -81 c-8 -3 -18 -10 -21 -15 -3 -5 -9 -3 -12 6 -5 12 0 16 21
15 16 0 21 -3 12 -6z m1413 0 c-7 -2 -19 -2 -25 0 -7 3 -2 5 12 5 14 0 19 -2
13 -5z m-1609 -34 c-4 -7 0 -9 12 -6 87 24 114 13 114 -45 l0 -38 -81 0 -81 0
3 43 c2 26 9 45 19 49 21 9 22 9 14 -3z m276 -19 c0 -5 -7 -10 -15 -10 -8 0
-15 5 -15 10 0 6 7 10 15 10 8 0 15 -4 15 -10z m-550 -60 c0 -5 -10 -10 -22
-10 -19 0 -20 2 -8 10 19 13 30 13 30 0z m-127 -47 c-7 -2 -19 -2 -25 0 -7 3
-2 5 12 5 14 0 19 -2 13 -5z m127 -23 c0 -11 -4 -20 -10 -20 -5 0 -10 9 -10
20 0 11 5 20 10 20 6 0 10 -9 10 -20z m2540 -10 c0 -5 -2 -10 -4 -10 -3 0 -8
5 -11 10 -3 6 -1 10 4 10 6 0 11 -4 11 -10z m92 -35 c16 0 15 -11 -2 -12 -10
-1 -21 5 -24 13 -4 10 -2 13 7 7 6 -4 15 -8 19 -8z m-2912 -5 c0 -5 9 -10 20
-10 11 0 20 -5 20 -11 0 -12 -42 -2 -51 13 -8 12 -21 -21 -13 -33 3 -5 0 -9
-5 -9 -6 0 -11 9 -11 19 0 11 -3 21 -7 24 -5 2 -2 2 5 1 6 -2 12 1 12 6 0 6 7
10 15 10 8 0 15 -4 15 -10z m2995 -40 c-28 -12 -37 -12 -30 0 3 6 16 10 28 9
21 0 21 -1 2 -9z m-3068 -6 c-3 -3 -12 -4 -19 -1 -8 3 -5 6 6 6 11 1 17 -2 13
-5z m1760 -130 c-3 -3 -12 -4 -19 -1 -8 3 -5 6 6 6 11 1 17 -2 13 -5z m-458
-20 c10 -9 -65 -3 -78 5 -10 6 1 8 30 4 24 -3 46 -7 48 -9z m249 9 c-10 -2
-26 -2 -35 0 -10 3 -2 5 17 5 19 0 27 -2 18 -5z m-1888 -13 c0 -5 -2 -10 -4
-10 -3 0 -8 5 -11 10 -3 6 -1 10 4 10 6 0 11 -4 11 -10z m1523 -7 c-7 -2 -19
-2 -25 0 -7 3 -2 5 12 5 14 0 19 -2 13 -5z m-80 -10 c-7 -2 -21 -2 -30 0 -10
3 -4 5 12 5 17 0 24 -2 18 -5z m860 0 c-7 -2 -19 -2 -25 0 -7 3 -2 5 12 5 14
0 19 -2 13 -5z m87 3 c0 -3 -4 -8 -10 -11 -5 -3 -10 -1 -10 4 0 6 5 11 10 11
6 0 10 -2 10 -4z m-1013 -12 c-3 -3 -12 -4 -19 -1 -8 3 -5 6 6 6 11 1 17 -2
13 -5z m-237 -34 c0 -5 -5 -10 -11 -10 -5 0 -7 5 -4 10 3 6 8 10 11 10 2 0 4
-4 4 -10z m1475 -18 c-3 -3 -11 0 -18 7 -9 10 -8 11 6 5 10 -3 15 -9 12 -12z
m-1512 1 c-7 -2 -19 -2 -25 0 -7 3 -2 5 12 5 14 0 19 -2 13 -5z m-86 -19 c-3
-3 -12 -4 -19 -1 -8 3 -5 6 6 6 11 1 17 -2 13 -5z m-61 -16 c-10 -6 -22 -6
-26 -2 -5 5 3 10 18 11 22 1 24 0 8 -9z m1804 2 c0 -5 -2 -10 -4 -10 -3 0 -8
5 -11 10 -3 6 -1 10 4 10 6 0 11 -4 11 -10z m-1946 -35 c-4 -8 -8 -15 -10 -15
-2 0 -4 7 -4 15 0 8 4 15 10 15 5 0 7 -7 4 -15z m51 5 c-28 -12 -37 -12 -30 0
3 6 16 10 28 9 21 0 21 -1 2 -9z m-455 -70 c0 -33 3 -40 20 -40 11 0 20 5 20
10 0 6 7 10 15 10 10 0 15 -10 15 -26 0 -21 -4 -25 -20 -21 -11 3 -20 1 -20
-4 0 -5 6 -9 13 -9 8 0 7 -3 -3 -9 -16 -11 -33 -4 -25 10 4 5 -7 12 -24 15
-17 4 -31 10 -31 15 0 5 -9 9 -20 9 -16 0 -20 -7 -20 -34 0 -19 6 -37 13 -39
6 -3 -3 -6 -21 -6 -19 -1 -31 -5 -27 -11 3 -5 -1 -10 -9 -10 -11 0 -16 9 -16
30 0 17 -4 30 -10 30 -5 0 -10 9 -10 20 0 17 7 20 40 20 l40 0 0 40 0 40 40 0
40 0 0 -40z m238 33 c-21 -5 -23 -14 -5 -32 10 -11 9 -13 -3 -9 -8 3 -21 -2
-29 -9 -7 -8 -18 -12 -23 -11 -14 5 -5 23 12 23 10 0 14 8 12 23 -3 18 1 22
25 21 17 -1 21 -3 11 -6z m87 -3 c-3 -5 -12 -10 -18 -10 -7 0 -6 4 3 10 19 12
23 12 15 0z m2265 6 c0 -2 -7 -7 -16 -10 -8 -3 -12 -2 -9 4 6 10 25 14 25 6z
m-2315 -25 c-3 -6 -11 -11 -17 -11 -6 0 -6 6 2 15 14 17 26 13 15 -4z m3445
-101 c0 -5 -2 -10 -4 -10 -3 0 -8 5 -11 10 -3 6 -1 10 4 10 6 0 11 -4 11 -10z
m-4605 -10 c3 -5 1 -10 -4 -10 -6 0 -11 5 -11 10 0 6 2 10 4 10 3 0 8 -4 11
-10z m885 0 c0 -5 -7 -7 -15 -4 -8 4 -15 8 -15 10 0 2 7 4 15 4 8 0 15 -4 15
-10z m3680 -10 c0 -5 -9 -10 -20 -10 -11 0 -20 5 -20 10 0 6 9 10 20 10 11 0
20 -4 20 -10z m-3700 -4 c0 -2 -7 -7 -16 -10 -8 -3 -12 -2 -9 4 6 10 25 14 25
6z m3740 -11 c0 -8 -4 -15 -10 -15 -5 0 -10 7 -10 15 0 8 5 15 10 15 6 0 10
-7 10 -15z m-4665 -15 c-10 -11 -22 -20 -28 -20 -5 0 1 9 14 20 31 25 37 25
14 0z m4765 -13 c0 21 28 3 32 -21 4 -19 1 -21 -23 -18 -16 2 -29 12 -32 22
-6 23 4 35 15 18 6 -10 8 -10 8 -1z m-3910 -1 c0 -2 -7 -7 -16 -10 -8 -3 -12
-2 -9 4 6 10 25 14 25 6z m-50 -20 c0 -3 -4 -8 -10 -11 -5 -3 -10 -1 -10 4 0
6 5 11 10 11 6 0 10 -2 10 -4z m-100 -16 c0 -5 6 -10 14 -10 8 0 18 -5 22 -12
5 -8 0 -9 -15 -5 -17 4 -21 2 -17 -9 4 -12 2 -12 -14 -4 -22 12 -22 12 -14 34
7 18 24 22 24 6z m-560 -50 l0 -40 -40 0 -40 0 0 40 0 40 40 0 40 0 0 -40z
m550 -7 c0 -1 -10 -7 -21 -14 -13 -6 -19 -7 -15 -1 3 6 0 12 -6 15 -7 2 -1 4
14 3 16 0 28 -2 28 -3z m-800 -18 c0 -7 -7 -12 -15 -12 -8 0 -15 5 -15 10 0 5
-8 3 -17 -4 -16 -12 -17 -12 -6 1 14 18 53 21 53 5z m30 -5 c0 -5 -2 -10 -4
-10 -3 0 -8 5 -11 10 -3 6 -1 10 4 10 6 0 11 -4 11 -10z m714 1 c3 -5 -5 -16
-19 -25 -29 -19 -39 -20 -29 -3 4 6 -10 -5 -30 -26 -21 -21 -41 -35 -45 -31
-3 4 0 9 7 11 17 6 15 20 -3 27 -9 3 -15 1 -14 -7 4 -32 -2 -46 -16 -41 -11 5
-14 2 -8 -12 4 -14 -1 -11 -20 9 -15 15 -37 27 -52 27 -22 0 -25 -4 -25 -39 0
-22 -3 -48 -6 -58 -6 -17 -6 -17 8 1 8 10 18 15 21 10 3 -6 -11 -23 -31 -39
-21 -16 -29 -20 -19 -8 16 19 16 21 -4 39 -16 14 -23 15 -26 7 -3 -7 -18 -13
-34 -13 l-29 0 0 81 0 80 173 -1 c217 -2 206 -2 187 10 -9 6 -10 10 -3 10 6 0
14 -4 17 -9z m3566 -17 c0 -15 -28 -31 -41 -23 -11 7 -11 9 4 9 9 0 17 5 17
10 0 6 5 10 10 10 6 0 10 -3 10 -6z m180 -35 c0 -24 -4 -38 -10 -34 -5 3 -10
13 -10 21 0 8 -4 14 -10 14 -5 0 -10 -7 -10 -15 0 -8 -9 -15 -20 -15 -16 0
-20 7 -20 35 0 34 1 35 40 35 l40 0 0 -41z m-4560 -49 c0 -5 -4 -10 -10 -10
-5 0 -10 5 -10 10 0 6 5 10 10 10 6 0 10 -4 10 -10z m626 -17 c-10 -11 -19 -7
-22 10 -2 15 0 16 12 6 8 -6 12 -14 10 -16z m-714 5 c-14 -14 -16 -32 -3 -24
10 7 37 -22 28 -30 -9 -10 -37 4 -43 21 -6 14 11 45 24 45 3 0 1 -5 -6 -12z
m4579 -25 c13 -16 12 -17 -3 -4 -10 7 -18 15 -18 17 0 8 8 3 21 -13z m-4626
-23 c-3 -5 -11 -10 -16 -10 -6 0 -7 5 -4 10 3 6 11 10 16 10 6 0 7 -4 4 -10z
m4795 -40 c0 -5 -4 -10 -10 -10 -5 0 -10 5 -10 10 0 6 5 10 10 10 6 0 10 -4
10 -10z m-4176 -25 c3 -9 0 -15 -9 -15 -8 0 -15 7 -15 15 0 8 4 15 9 15 5 0
11 -7 15 -15z m-64 -14 c0 -12 -29 -35 -36 -28 -7 6 17 36 29 37 4 0 7 -4 7
-9z m4240 -17 c0 -8 -19 -13 -24 -6 -3 5 1 9 9 9 8 0 15 -2 15 -3z m-4230 -38
c0 -2 -8 -10 -17 -17 -16 -13 -17 -12 -4 4 13 16 21 21 21 13z m-90 -81 c0 0
-18 -19 -41 -40 -22 -22 -37 -32 -34 -22 4 9 12 17 17 17 6 0 8 6 5 14 -3 8 1
13 11 12 9 0 16 4 15 10 -1 6 5 11 13 11 8 0 14 -1 14 -2z m5134 -23 c3 -5 -1
-9 -9 -9 -8 0 -15 4 -15 9 0 4 4 8 9 8 6 0 12 -4 15 -8z m16 -52 c-9 -6 -17
-5 -22 3 -9 15 14 29 27 16 6 -6 5 -13 -5 -19z m-5892 -19 c-7 -12 -16 -21
-21 -21 -4 0 0 11 9 25 20 30 31 26 12 -4z m638 7 c3 -4 -1 -5 -10 -4 -8 1
-18 5 -22 8 -3 4 1 5 10 4 8 -1 18 -5 22 -8z m-16 -31 c0 -2 -15 -16 -32 -33
-27 -24 -29 -25 -13 -4 24 30 45 47 45 37z m-670 -48 c0 -5 -4 -9 -10 -9 -5 0
-10 7 -10 16 0 8 5 12 10 9 6 -3 10 -10 10 -16z m6044 -14 c3 -8 1 -15 -4 -15
-6 0 -10 7 -10 15 0 8 2 15 4 15 2 0 6 -7 10 -15z m16 -61 c0 -8 -5 -12 -10
-9 -6 4 -8 11 -5 16 9 14 15 11 15 -7z m-5510 -3 c0 -6 -4 -13 -10 -16 -5 -3
-10 1 -10 9 0 9 5 16 10 16 6 0 10 -4 10 -9z m-669 -64 c-10 -9 -11 -8 -5 6 3
10 9 15 12 12 3 -3 0 -11 -7 -18z m5637 -2 c-3 -3 -9 2 -12 12 -6 14 -5 15 5
6 7 -7 10 -15 7 -18z m-5028 -10 c0 -1 -10 -10 -22 -21 -14 -12 -18 -13 -10
-3 6 9 10 18 7 21 -3 2 2 5 10 5 8 0 15 -1 15 -2z m5118 -100 c12 -14 18 -25
13 -25 -5 0 -16 11 -25 25 -9 14 -15 25 -13 25 2 0 13 -11 25 -25z m632 -76
c0 -11 -4 -18 -10 -14 -5 3 -7 12 -3 20 7 21 13 19 13 -6z m-6430 -29 c0 -5
-4 -10 -10 -10 -5 0 -10 5 -10 10 0 6 5 10 10 10 6 0 10 -4 10 -10z m6400 -30
l0 -40 -40 0 -40 0 0 40 0 40 40 0 40 0 0 -40z m-5937 -55 c-3 -9 -8 -14 -10
-11 -3 3 -2 9 2 15 9 16 15 13 8 -4z m5473 -4 c0 -9 5 -15 12 -13 8 1 11 -2 7
-8 -8 -13 -22 -5 -34 19 -7 13 -6 18 3 18 7 0 13 -7 12 -16z m-5513 -41 c3
-11 2 -22 -2 -24 -4 -3 -8 6 -9 20 -2 29 4 31 11 4z m-573 -43 c0 7 7 10 15 7
19 -8 20 -24 1 -24 -9 0 -12 -7 -9 -18 3 -13 -2 -18 -19 -19 -13 0 -17 1 -10
4 6 3 12 9 12 15 0 6 -7 8 -15 5 -12 -5 -12 -2 -3 19 8 18 14 21 20 12 6 -10
8 -10 8 -1z m6150 -7 c0 -5 -5 -10 -11 -10 -5 0 -7 5 -4 10 3 6 8 10 11 10 2
0 4 -4 4 -10z m577 -65 c0 -22 -14 -18 -20 4 -3 13 0 18 7 15 7 -3 13 -11 13
-19z m-549 -10 c-3 -3 -9 2 -12 12 -6 14 -5 15 5 6 7 -7 10 -15 7 -18z m-5678
-23 c0 -5 -7 -17 -15 -28 -14 -18 -14 -17 -4 9 12 27 19 34 19 19z m6255 -17
c-2 -16 2 -25 11 -25 8 0 14 -7 14 -15 0 -22 -18 -18 -45 9 -21 22 -22 24 -7
39 24 22 30 20 27 -8z m-515 -60 c12 -19 20 -39 18 -45 -2 -5 -13 10 -25 35
-26 54 -23 58 7 10z m-6250 -55 c0 -13 -7 -20 -20 -20 -11 0 -20 5 -20 10 0 6
-9 10 -20 10 -11 0 -20 5 -20 10 0 6 18 10 40 10 33 0 40 -3 40 -20z m6299
-31 c-16 -10 -23 -4 -14 10 3 6 11 8 17 5 6 -4 5 -9 -3 -15z m545 -20 c-8 -14
-24 -10 -24 6 0 9 6 12 15 9 8 -4 12 -10 9 -15z m-6966 -40 c0 -41 -3 -49 -17
-47 -11 3 -16 13 -15 36 4 76 32 86 32 11z m6475 -66 c-3 -7 -6 -13 -8 -13 -2
0 -5 6 -8 13 -3 8 1 14 8 14 7 0 11 -6 8 -14z m-6526 -75 c5 -7 11 -31 12 -53
3 -35 1 -38 -13 -26 -21 18 -46 -2 -46 -36 0 -13 -8 -32 -17 -41 -16 -16 -16
-16 -10 1 4 10 2 17 -6 18 -9 0 -9 2 1 6 6 2 12 13 12 23 0 11 6 34 14 52 8
18 17 41 20 51 6 20 20 22 33 5z m504 -15 c-12 -20 -14 -14 -5 12 4 9 9 14 11
11 3 -2 0 -13 -6 -23z m6069 -17 c0 -3 -4 -8 -10 -11 -5 -3 -10 -1 -10 4 0 6
5 11 10 11 6 0 10 -2 10 -4z m-6108 -78 c-7 -7 -12 -8 -12 -2 0 14 12 26 19
19 2 -3 -1 -11 -7 -17z m6139 -12 c5 3 9 0 9 -6 0 -15 -23 -7 -26 8 -1 7 0 8
3 2 2 -5 9 -8 14 -4z m46 -159 c1 -34 -10 -20 -21 26 -5 23 -4 26 6 16 7 -6
14 -26 15 -42z m-6249 -42 c-3 -3 -9 2 -12 12 -6 14 -5 15 5 6 7 -7 10 -15 7
-18z m6782 -16 c0 -6 -10 -19 -22 -30 -19 -15 -20 -18 -6 -19 9 0 20 5 24 11
12 20 24 -14 24 -71 0 -31 5 -61 11 -67 19 -19 0 -33 -42 -33 l-40 0 2 95 c1
52 5 93 9 90 4 -3 10 4 13 15 5 21 27 28 27 9z m-510 -21 c0 -18 -2 -20 -9 -8
-6 8 -7 18 -5 22 9 14 14 9 14 -14z m-6720 -8 c0 -11 -4 -20 -10 -20 -5 0 -10
9 -10 20 0 11 5 20 10 20 6 0 10 -9 10 -20z m6739 -67 c0 -25 -1 -26 -9 -8
-12 27 -12 35 0 35 6 0 10 -12 9 -27z m-6332 -35 c-3 -8 -6 -5 -6 6 -1 11 2
17 5 13 3 -3 4 -12 1 -19z m-512 -50 c-11 -48 -25 -82 -31 -75 -7 6 24 107 33
107 2 0 1 -15 -2 -32z m502 0 c-3 -7 -5 -2 -5 12 0 14 2 19 5 13 2 -7 2 -19 0
-25z m6360 -30 c-3 -7 -5 -2 -5 12 0 14 2 19 5 13 2 -7 2 -19 0 -25z m527 -68
c-8 -7 -24 24 -23 45 0 15 4 13 14 -10 7 -16 11 -32 9 -35z m-6907 -2 c-3 -7
-5 -2 -5 12 0 14 2 19 5 13 2 -7 2 -19 0 -25z m6397 6 c3 -8 2 -12 -4 -9 -6 3
-10 10 -10 16 0 14 7 11 14 -7z m-6917 -66 c-3 -7 -5 -2 -5 12 0 14 2 19 5 13
2 -7 2 -19 0 -25z m500 -70 c-3 -8 -6 -5 -6 6 -1 11 2 17 5 13 3 -3 4 -12 1
-19z m6445 -30 c-8 -8 -9 -4 -5 13 4 13 8 18 11 10 2 -7 -1 -18 -6 -23z m5
-100 c-3 -7 -5 -2 -5 12 0 14 2 19 5 13 2 -7 2 -19 0 -25z m10 -120 c-2 -18
-4 -4 -4 32 0 36 2 50 4 33 2 -18 2 -48 0 -65z m-6510 -205 c-3 -10 -5 -4 -5
12 0 17 2 24 5 18 2 -7 2 -21 0 -30z m20 -145 c-2 -18 -4 -6 -4 27 0 33 2 48
4 33 2 -15 2 -42 0 -60z m6490 -140 c-2 -13 -4 -3 -4 22 0 25 2 35 4 23 2 -13
2 -33 0 -45z m-6480 -15 c-3 -10 -5 -4 -5 12 0 17 2 24 5 18 2 -7 2 -21 0 -30z
m6470 -45 c-3 -7 -5 -2 -5 12 0 14 2 19 5 13 2 -7 2 -19 0 -25z m-6460 -65
c-3 -10 -5 -2 -5 17 0 19 2 27 5 18 2 -10 2 -26 0 -35z m26 -166 c5 -34 4 -36
-14 -27 -20 11 -26 45 -10 54 5 3 7 25 5 49 l-3 42 8 -40 c5 -22 11 -57 14
-78z m6404 21 c-3 -8 -6 -5 -6 6 -1 11 2 17 5 13 3 -3 4 -12 1 -19z m505 -33
c0 -20 -3 -39 -6 -42 -3 -4 -6 15 -6 42 0 27 3 46 6 42 3 -3 6 -22 6 -42z
m-508 -10 c-4 -8 -8 -15 -10 -15 -2 0 -4 7 -4 15 0 8 4 15 10 15 5 0 7 -7 4
-15z m-6374 -123 c0 -15 -2 -15 -10 -2 -13 20 -13 33 0 25 6 -3 10 -14 10 -23z
m-17 -59 c0 -32 4 -64 9 -70 8 -10 5 -13 -11 -13 -20 0 -21 5 -21 82 0 62 3
79 11 71 7 -7 12 -38 12 -70z m6347 -10 c-11 -17 -11 -17 -6 0 3 10 7 26 7 35
1 15 2 15 6 0 2 -10 -1 -25 -7 -35z m-6333 -45 c-3 -7 -5 -2 -5 12 0 14 2 19
5 13 2 -7 2 -19 0 -25z m28 -76 c-10 -17 -27 -29 -41 -30 -13 -1 -24 1 -24 4
0 10 28 34 39 34 6 0 11 8 11 18 0 26 12 35 22 17 6 -10 3 -25 -7 -43z m6273
-68 c2 -41 21 -64 51 -64 17 0 21 -6 21 -31 l0 -31 -65 4 c-41 4 -65 2 -65 -5
0 -6 -2 -8 -5 -5 -9 8 9 43 23 44 6 1 19 2 27 3 8 0 15 10 15 21 0 18 -10 25
-32 21 -15 -2 -8 20 8 26 8 3 13 12 10 20 -5 12 0 33 7 33 1 0 3 -16 5 -36z
m-6193 -114 c-3 -5 -1 -10 4 -10 14 0 14 -27 1 -35 -6 -3 -7 1 -4 9 4 11 0 16
-11 16 -14 0 -15 3 -5 15 14 17 24 20 15 5z m6235 -130 c0 -33 -3 -40 -20 -40
-17 0 -20 7 -20 40 0 33 3 40 20 40 17 0 20 -7 20 -40z m331 -127 c-10 -17
-10 -16 -11 3 0 23 13 41 18 25 2 -6 -1 -18 -7 -28z m-534 -13 c1 -11 -2 -20
-8 -20 -10 0 -12 23 -2 33 9 9 9 10 10 -13z m-6407 -90 c6 -11 8 -20 6 -20 -3
0 -10 9 -16 20 -6 11 -8 20 -6 20 3 0 10 -9 16 -20z m32 -42 c21 -12 22 -15
11 -38 -12 -24 -13 -25 -13 -2 0 12 -5 22 -11 22 -5 0 -8 4 -5 9 4 5 0 12 -6
14 -7 3 -10 6 -7 6 4 1 18 -5 31 -11z m6820 -18 c4 -27 3 -29 -10 -16 -8 8
-12 22 -9 30 9 23 14 20 19 -14z m-6785 -56 c-3 -3 -12 -4 -19 -1 -8 3 -5 6 6
6 11 1 17 -2 13 -5z m63 -34 c0 -11 -7 -20 -15 -20 -8 0 -15 9 -15 20 0 11 7
20 15 20 8 0 15 -9 15 -20z m6440 0 c0 -17 -7 -20 -40 -20 -33 0 -40 3 -40 20
0 17 7 20 40 20 33 0 40 -3 40 -20z m209 -72 l-2 -33 -4 29 c-4 22 -7 26 -14
15 -7 -11 -9 -11 -9 4 0 9 7 17 15 17 11 0 15 -10 14 -32z m-299 1 c0 -14 -16
-11 -29 5 -10 12 -8 13 8 9 12 -3 21 -9 21 -14z m264 -48 c17 -19 18 -21 2
-21 -10 0 -16 -7 -14 -17 2 -11 -6 -19 -22 -24 -14 -4 -19 -7 -12 -8 6 -1 12
-5 12 -10 0 -11 -59 -33 -71 -25 -5 3 -6 -3 -3 -13 3 -10 -2 -6 -11 10 -8 15
-18 27 -21 27 -3 0 -2 -4 1 -10 11 -18 -1 -10 -26 16 -23 26 -23 26 -2 15 31
-16 73 -4 73 20 0 12 -7 19 -20 19 -11 0 -20 5 -20 10 0 6 -9 10 -19 10 -11 0
-23 -4 -26 -10 -10 -16 -40 -12 -58 8 -16 18 -12 19 101 21 108 2 119 1 136
-18z m-6496 -154 c0 -7 4 -22 7 -34 5 -15 3 -23 -4 -23 -7 0 -10 4 -7 9 4 5 0
11 -6 13 -7 3 -13 16 -13 30 -1 25 21 30 23 5z m623 -84 c13 -16 12 -17 -3 -4
-17 13 -22 21 -14 21 2 0 10 -8 17 -17z m-564 -55 c-3 -8 -6 -5 -6 6 -1 11 2
17 5 13 3 -3 4 -12 1 -19z m643 -48 c8 -16 8 -20 -4 -20 -9 0 -14 8 -13 20 1
11 2 20 4 20 1 0 7 -9 13 -20z m35 -60 c4 -6 10 -8 14 -6 4 3 30 -17 56 -44
27 -28 44 -50 37 -50 -7 0 -12 5 -12 11 0 8 -6 7 -17 -2 -15 -11 -16 -11 -6 0
15 17 -12 50 -28 34 -6 -6 -21 -8 -35 -5 -20 4 -24 9 -20 25 3 12 0 27 -6 34
-7 9 -7 13 0 13 6 0 14 -5 17 -10z m-495 -30 c0 -5 -4 -10 -10 -10 -5 0 -10
-9 -10 -19 0 -12 -6 -18 -15 -17 -9 1 -15 6 -14 11 0 4 -5 12 -13 16 -9 6 -4
9 15 9 15 0 27 5 27 10 0 6 5 10 10 10 6 0 10 -4 10 -10z m80 -20 c0 -5 -13
-10 -30 -10 -16 0 -30 5 -30 10 0 6 14 10 30 10 17 0 30 -4 30 -10z m-74 -53
c4 -3 3 -14 0 -24 -7 -17 -8 -17 -22 1 -8 11 -14 23 -14 27 0 9 27 6 36 -4z
m394 -77 c0 -73 -2 -80 -20 -80 -13 0 -20 7 -20 20 0 13 -7 20 -20 20 -18 0
-20 7 -20 60 l0 60 40 0 40 0 0 -80z m215 61 c3 -5 2 -12 -3 -15 -5 -3 -9 1
-9 9 0 17 3 19 12 6z m-578 -56 c0 -8 -4 -12 -9 -9 -4 3 -8 9 -8 15 0 5 4 9 8
9 5 0 9 -7 9 -15z m827 -153 c3 -5 -1 -9 -9 -9 -8 0 -12 4 -9 9 3 4 7 8 9 8 2
0 6 -4 9 -8z m-664 -22 c0 -5 -5 -10 -11 -10 -5 0 -7 5 -4 10 3 6 8 10 11 10
2 0 4 -4 4 -10z m4623 -165 c-3 -9 -8 -14 -10 -11 -3 3 -2 9 2 15 9 16 15 13
8 -4z m-4388 -75 c3 -6 -1 -7 -9 -4 -18 7 -21 14 -7 14 6 0 13 -4 16 -10z
m4735 -70 c0 -5 -2 -10 -4 -10 -3 0 -8 5 -11 10 -3 6 -1 10 4 10 6 0 11 -4 11
-10z m-3460 -190 c0 -5 -5 -10 -11 -10 -5 0 -7 5 -4 10 3 6 8 10 11 10 2 0 4
-4 4 -10z m3345 -50 c3 -5 -1 -10 -10 -10 -9 0 -13 5 -10 10 3 6 8 10 10 10 2
0 7 -4 10 -10z m-119 -108 c-17 -16 -18 -16 -5 5 7 12 15 20 18 17 3 -2 -3
-12 -13 -22z m-1389 -28 c-3 -3 -12 -4 -19 -1 -8 3 -5 6 6 6 11 1 17 -2 13 -5z
m-50 -10 c-3 -3 -12 -4 -19 -1 -8 3 -5 6 6 6 11 1 17 -2 13 -5z m-2384 -26
c12 -7 45 -15 72 -18 42 -4 50 -8 53 -27 2 -13 10 -23 18 -23 8 0 14 -5 14
-11 0 -6 9 -8 23 -3 12 4 29 7 37 8 8 1 18 8 22 16 5 10 7 7 5 -9 -2 -20 -8
-24 -46 -27 -25 -3 -50 1 -58 8 -8 7 -22 13 -31 15 -9 1 -22 9 -28 17 -6 9
-15 16 -21 16 -12 0 -93 39 -93 45 0 8 10 6 33 -7z m1750 -15 c-7 -2 -21 -2
-30 0 -10 3 -4 5 12 5 17 0 24 -2 18 -5z m317 -3 c0 -5 -6 -10 -14 -10 -8 0
-18 5 -21 10 -3 6 3 10 14 10 12 0 21 -4 21 -10z m-1470 -224 c0 -2 -12 -3
-27 -3 -16 0 -22 2 -15 4 6 3 9 9 6 15 -4 6 2 5 15 -1 11 -7 21 -13 21 -15z
m370 -81 l0 -55 -37 0 c-21 1 -51 7 -68 15 l-30 15 27 -4 c16 -2 33 3 39 10 8
10 8 14 0 14 -6 0 -11 14 -11 30 0 28 2 30 40 30 l40 0 0 -55z m2005 5 c-3 -5
-14 -10 -23 -9 -14 0 -13 2 3 9 27 11 27 11 20 0z m-152 -47 c-7 -2 -19 -2
-25 0 -7 3 -2 5 12 5 14 0 19 -2 13 -5z m-1816 -29 c-3 -3 -12 -4 -19 -1 -8 3
-5 6 6 6 11 1 17 -2 13 -5z m1243 -39 c0 -48 -1 -48 -49 -39 -28 6 -31 10 -31
45 0 39 0 39 40 39 l40 0 0 -45z m390 35 c0 -5 -5 -10 -11 -10 -5 0 -7 5 -4
10 3 6 8 10 11 10 2 0 4 -4 4 -10z m-965 -92 c7 -8 4 -9 -8 -4 -10 3 -40 6
-65 7 -36 0 -42 2 -27 9 24 11 86 3 100 -12z m475 12 c-8 -5 -28 -9 -45 -9
-29 1 -29 1 -5 9 14 4 34 8 45 9 16 1 17 -1 5 -9z m-275 -10 c-45 -11 -85 -11
-85 0 0 6 25 9 58 9 47 -1 52 -3 27 -9z m88 3 c-7 -2 -19 -2 -25 0 -7 3 -2 5
12 5 14 0 19 -2 13 -5z"/>
<path d="M2677 2950 c3 -11 9 -20 15 -20 5 0 4 9 -2 20 -6 11 -12 20 -14 20
-2 0 -2 -9 1 -20z"/>
<path d="M5913 7400 c-54 -22 -53 4 -53 -939 l0 -871 -47 -24 c-82 -42 -195
-127 -290 -219 l-92 -89 -3 536 -3 536 -28 27 -27 28 -307 3 c-219 2 -315 -1
-335 -9 -62 -25 -58 61 -58 -1276 l0 -1223 -225 0 -225 0 0 785 c0 841 0 838
-49 864 -28 15 -653 16 -681 1 -52 -28 -50 8 -50 -852 l0 -798 -185 0 -185 0
0 1420 c0 1079 -3 1425 -12 1445 -15 33 -56 55 -104 55 -28 0 -44 -8 -70 -34
l-34 -34 0 -1486 c0 -1622 -4 -1518 56 -1565 l27 -21 1173 0 1173 0 50 -72
c209 -308 508 -509 866 -584 122 -26 400 -26 529 0 159 31 347 101 442 165
l31 21 74 -69 74 -69 -66 -69 c-37 -37 -74 -82 -83 -100 -20 -40 -21 -113 -1
-160 22 -51 884 -916 941 -943 63 -31 158 -27 223 7 74 40 429 393 459 455 34
73 31 167 -8 234 -33 59 -798 833 -865 877 -101 66 -192 61 -292 -14 l-66 -50
-57 56 -58 57 83 110 c127 168 215 360 261 573 26 121 24 387 -4 520 -29 136
-65 241 -119 349 -205 411 -574 684 -1025 761 l-38 6 0 810 0 811 -34 34 -34
34 -314 -1 c-172 0 -323 -4 -335 -9z m497 -938 l0 -729 -102 -12 c-57 -7 -131
-18 -165 -26 l-63 -13 0 754 0 754 165 0 165 0 0 -728z m-1202 -934 l-3 -643
-28 -73 c-49 -129 -68 -233 -74 -412 -6 -178 10 -323 48 -445 10 -33 19 -63
19 -67 0 -5 -62 -8 -138 -8 l-139 0 -6 173 c-4 94 -7 610 -7 1145 l0 972 165
0 165 0 -2 -642z m1488 -37 c170 -35 322 -107 476 -223 223 -169 397 -471 437
-762 51 -366 -75 -736 -337 -988 -164 -158 -346 -256 -567 -304 -110 -25 -303
-29 -419 -10 -449 74 -820 412 -938 856 -29 109 -37 386 -14 501 48 243 157
450 326 619 182 181 410 296 655 329 96 13 272 5 381 -18z m-2698 -888 l2
-723 -170 0 -170 0 0 725 0 725 168 -2 167 -3 3 -722z m4218 -1813 c209 -210
385 -391 393 -404 28 -46 -13 -114 -132 -219 l-68 -61 -424 424 c-234 234
-425 430 -425 435 0 13 167 178 195 193 11 6 34 12 52 12 28 0 69 -38 409
-380z"/>
<path d="M6405 5324 c-244 -28 -412 -98 -583 -242 -117 -100 -247 -316 -293
-488 -30 -113 -37 -310 -14 -429 66 -355 332 -644 690 -752 83 -25 103 -27
260 -27 141 1 183 4 247 22 366 100 638 395 709 769 17 93 7 329 -19 426 -91
336 -355 600 -687 686 -74 20 -230 43 -265 39 -8 0 -28 -3 -45 -4z m250 -228
c33 -9 102 -37 153 -62 282 -141 448 -453 412 -772 -21 -191 -81 -314 -220
-452 -105 -106 -191 -158 -330 -202 -64 -19 -96 -23 -210 -23 -125 1 -142 3
-225 32 -116 40 -199 89 -281 166 -167 156 -244 337 -244 573 0 128 22 219 81
341 103 210 296 362 519 409 81 17 262 12 345 -10z"/>
<path d="M5968 4444 c-37 -20 -48 -43 -48 -107 0 -111 46 -197 106 -197 12 0
36 11 52 25 35 29 52 87 52 175 0 56 -3 65 -31 91 -35 33 -86 38 -131 13z"/>
<path d="M8450 6831 c0 -6 4 -13 10 -16 6 -3 7 1 4 9 -7 18 -14 21 -14 7z"/>
<path d="M8610 6452 c-13 -14 -12 -15 3 -9 15 5 17 0 17 -44 0 -29 4 -48 10
-44 5 3 7 13 4 23 -5 14 -4 14 6 -1 7 -11 9 -32 6 -48 -3 -18 -1 -29 6 -29 7
0 8 -12 4 -32 -6 -28 -5 -30 7 -14 11 16 14 12 26 -35 7 -28 19 -63 27 -77 14
-27 10 -47 -8 -36 -8 5 -9 1 -5 -10 4 -10 7 -27 7 -39 0 -14 10 -27 26 -34 26
-12 26 -12 19 25 -7 40 -108 349 -128 394 -11 24 -13 25 -27 10z"/>
<path d="M1426 5615 c-3 -8 -1 -15 4 -15 6 0 10 7 10 15 0 8 -2 15 -4 15 -2 0
-6 -7 -10 -15z"/>
<path d="M1345 5251 c-4 -103 -2 -232 7 -368 12 -187 13 -200 18 -123 3 47 11
95 18 107 16 28 15 53 -1 53 -22 0 -41 165 -32 283 4 56 9 123 11 149 2 26 0
50 -5 52 -5 3 -12 -66 -16 -153z"/>
<path d="M1375 4605 c8 -71 38 -225 45 -225 3 0 5 13 6 30 1 16 -2 27 -6 25
-4 -2 -7 9 -8 25 -1 33 14 41 21 13 3 -10 5 2 6 27 1 25 3 54 5 65 2 11 1 14
-1 8 -3 -7 -10 -13 -17 -13 -8 0 -11 -10 -8 -30 3 -18 0 -30 -7 -30 -6 0 -12
15 -13 33 -3 64 -5 72 -16 97 -11 22 -12 19 -7 -25z"/>
<path d="M1426 4360 c-3 -8 3 -49 13 -90 10 -41 19 -67 20 -57 2 26 16 20 16
-7 0 -13 -4 -22 -9 -18 -5 3 -6 -5 -2 -19 3 -13 9 -36 12 -51 4 -16 9 -28 13
-29 3 0 14 -2 24 -4 15 -3 18 1 13 18 -3 12 -6 35 -6 51 0 19 -4 27 -13 23
-10 -4 -12 3 -9 27 4 27 6 28 13 11 6 -16 8 -14 8 11 1 30 -1 32 -34 30 -32
-1 -35 1 -36 29 -1 16 -1 36 0 43 1 6 -2 20 -8 30 -8 14 -11 15 -15 2z"/>
<path d="M1505 4060 c-4 -6 1 -35 9 -65 13 -44 20 -53 34 -48 15 6 16 5 2 -12
-11 -13 -12 -19 -3 -22 7 -2 9 -11 6 -19 -3 -8 0 -14 6 -14 14 0 14 23 -1 38
-9 9 -7 13 5 18 9 3 17 15 17 25 0 15 -6 18 -22 16 -13 -2 -17 -2 -10 0 17 6
15 23 -3 23 -8 0 -15 7 -15 15 0 8 -5 15 -11 15 -6 0 -9 9 -6 20 6 22 2 26 -8
10z"/>
<path d="M1620 3713 c0 -5 5 -15 10 -23 8 -12 10 -11 10 8 0 12 -4 22 -10 22
-5 0 -10 -3 -10 -7z"/>
<path d="M2265 2750 c3 -5 8 -10 11 -10 2 0 4 5 4 10 0 6 -5 10 -11 10 -5 0
-7 -4 -4 -10z"/>
<path d="M3610 1716 c0 -2 7 -6 15 -10 8 -3 15 -1 15 4 0 6 -7 10 -15 10 -8 0
-15 -2 -15 -4z"/>
<path d="M3658 1713 c7 -3 16 -2 19 1 4 3 -2 6 -13 5 -11 0 -14 -3 -6 -6z"/>
<path d="M3709 1675 c19 -8 36 -13 39 -10 9 9 -5 16 -40 21 l-33 4 34 -15z"/>
<path d="M4308 1493 c7 -3 16 -2 19 1 4 3 -2 6 -13 5 -11 0 -14 -3 -6 -6z"/>
<path d="M4394 1479 c-5 -9 1 -10 20 -5 18 4 25 3 21 -4 -4 -6 6 -10 27 -9 21
1 26 3 13 6 -11 3 -24 9 -29 14 -14 13 -43 11 -52 -2z"/>
</g>
</svg>
