<?xml version="1.0" standalone="no"?>
<!DOCTYPE svg PUBLIC "-//W3C//DTD SVG 20010904//EN"
 "http://www.w3.org/TR/2001/REC-SVG-20010904/DTD/svg10.dtd">
<svg version="1.0" xmlns="http://www.w3.org/2000/svg"
 width="1024.000000pt" height="1024.000000pt" viewBox="0 0 1024.000000 1024.000000"
 preserveAspectRatio="xMidYMid meet">

<g transform="translate(0.000000,1024.000000) scale(0.100000,-0.100000)"
fill="#000000" stroke="none">
<path d="M0 5120 l0 -5120 5120 0 5120 0 0 5120 0 5120 -5120 0 -5120 0 0
-5120z m5220 3177 c0 -7 -7 -35 -16 -61 -12 -34 -20 -46 -31 -42 -22 9 -31 1
-391 -343 -95 -91 -180 -168 -189 -169 -9 -3 -60 40 -129 109 -105 104 -115
112 -139 104 -13 -6 -69 -53 -122 -105 -267 -259 -354 -340 -368 -340 -9 0
-15 9 -15 25 0 18 22 45 83 102 45 43 150 144 232 225 149 146 151 148 195
148 43 0 48 -3 152 -107 l108 -107 112 111 c62 61 160 155 217 209 173 164
227 218 210 212 -9 -4 -22 -2 -30 2 -11 8 -11 10 1 15 12 4 84 20 113 24 4 1
7 -5 7 -12z m657 -272 l118 -125 81 0 c59 0 83 -4 87 -13 12 -31 -9 -38 -103
-35 l-94 3 -106 117 -105 117 -3 -199 c-2 -171 -5 -199 -18 -204 -38 -15 -41
6 -37 227 3 116 6 218 8 225 3 6 15 12 29 12 18 0 54 -31 143 -125z m-403 99
c21 -21 20 -40 -5 -65 -32 -32 -78 -11 -79 37 0 42 53 60 84 28z m992 -226
c12 -40 -45 -60 -60 -21 -4 9 -1 22 5 29 17 21 47 17 55 -8z m-586 -98 c0 -75
-3 -90 -16 -90 -8 0 -12 -4 -9 -10 3 -5 -3 -10 -14 -10 -20 0 -21 6 -21 100
l0 100 30 0 30 0 0 -90z m130 -55 l0 -55 -35 0 -35 0 0 55 0 55 35 0 35 0 0
-55z m460 20 c0 -21 -32 -35 -53 -24 -37 21 -2 68 35 48 10 -5 18 -16 18 -24z
m-330 -25 c0 -49 -1 -50 -30 -50 -29 0 -30 1 -30 50 0 49 1 50 30 50 29 0 30
-1 30 -50z m320 -95 c0 -27 -17 -36 -42 -23 -23 11 -23 34 -1 46 24 14 43 4
43 -23z m-2998 8 c22 -20 23 -41 1 -65 -20 -22 -41 -23 -65 -1 -22 20 -23 41
-1 65 20 22 41 23 65 1z m1993 -93 c338 -51 692 -189 987 -382 285 -187 552
-456 700 -703 58 -97 132 -244 126 -250 -3 -3 -29 31 -58 77 -115 179 -141
218 -200 292 -255 322 -573 570 -924 722 -69 29 -134 54 -143 54 -10 0 -53
-30 -95 -65 l-77 -65 -98 25 c-402 103 -882 59 -1228 -111 -120 -59 -129 -70
-119 -126 5 -24 8 -46 9 -49 0 -4 -38 -27 -85 -52 l-85 -44 -43 76 c-23 42
-51 87 -61 100 l-18 24 -64 -38 c-121 -73 -214 -149 -365 -300 -121 -120 -167
-174 -232 -273 -185 -280 -308 -587 -344 -853 -6 -48 -15 -86 -19 -83 -4 2 -6
-94 -4 -213 5 -323 41 -525 137 -763 l50 -126 -39 -40 c-21 -23 -53 -62 -72
-88 -19 -26 -39 -45 -45 -43 -44 15 -255 629 -250 729 1 10 -2 16 -6 13 -11
-7 -20 143 -20 351 0 335 62 589 225 929 112 232 254 428 448 618 164 161 258
234 457 354 252 152 646 282 940 309 41 3 77 9 80 11 9 9 462 -5 535 -17z
m1457 8 c7 -7 22 -13 33 -12 31 0 73 -34 94 -77 l19 -39 -26 0 c-20 0 -30 7
-40 28 -15 36 -49 52 -107 52 -37 0 -50 -6 -79 -34 -39 -39 -80 -46 -70 -11 4
11 15 37 26 58 15 31 24 38 41 34 12 -3 31 -1 42 3 29 13 52 12 67 -2z m-3740
-25 c152 -68 224 -234 168 -388 -12 -33 -22 -68 -23 -77 -1 -9 -4 -16 -7 -15
-3 0 -24 -18 -47 -40 -65 -63 -135 -93 -221 -94 -91 -1 -132 13 -210 69 -92
68 -128 160 -113 287 14 124 108 239 222 274 53 16 177 7 231 -16z m3292 -9
c7 -19 -10 -44 -29 -44 -19 0 -36 25 -29 44 3 9 16 16 29 16 13 0 26 -7 29
-16z m-2744 -83 c5 -11 10 -27 10 -35 0 -19 -39 -56 -59 -56 -22 0 -51 30 -51
53 0 50 78 79 100 38z m3492 -192 c45 -29 78 -85 78 -132 0 -44 -53 -126 -95
-146 -39 -19 -145 -28 -145 -12 0 6 -3 10 -7 10 -23 -4 -35 3 -30 15 4 10 1
13 -7 10 -8 -3 -17 0 -22 7 -5 8 -3 10 6 4 8 -5 11 -3 8 6 -3 8 -10 13 -16 12
-13 -3 -26 33 -17 47 3 5 1 10 -6 10 -20 0 0 90 29 128 55 72 150 89 224 41z
m-1717 -108 c135 -26 249 -59 416 -121 319 -119 639 -376 843 -677 126 -188
205 -369 261 -598 44 -177 47 -206 50 -395 3 -183 -2 -230 -21 -230 -8 0 -13
3 -12 8 2 4 -1 8 -7 10 -5 1 -10 -4 -10 -10 0 -7 -8 -13 -17 -13 -9 0 -20 -4
-25 -9 -5 -5 -2 -6 6 -1 9 5 12 4 8 -2 -3 -5 4 -9 16 -8 13 2 21 8 19 16 -3
11 -1 11 9 2 16 -16 23 -57 8 -48 -6 4 -8 14 -5 24 5 12 2 11 -9 -3 -8 -11
-15 -14 -15 -8 0 7 -4 12 -9 12 -6 0 -8 -9 -6 -21 3 -16 1 -18 -9 -10 -7 6
-15 9 -17 6 -3 -2 -3 62 -1 143 9 315 -55 609 -192 880 -49 97 -181 292 -259
382 -72 82 -214 210 -311 279 -81 57 -185 105 -272 125 -39 8 -133 38 -210 65
-85 29 -203 61 -304 81 -160 32 -170 32 -345 27 -99 -3 -196 -9 -215 -12 -19
-3 -64 -10 -99 -16 -36 -6 -68 -6 -73 -1 -4 4 4 8 19 8 24 -1 29 4 33 34 9 63
54 80 240 96 41 4 77 9 80 12 12 12 333 -8 435 -27z m-193 -226 c155 -16 260
-41 398 -92 127 -48 188 -79 311 -161 357 -239 622 -613 693 -977 9 -44 18
-93 22 -110 14 -70 16 -362 3 -436 -7 -41 -12 -81 -10 -90 2 -20 -59 -207 -90
-274 -12 -27 -29 -54 -36 -58 -7 -5 -11 -12 -8 -18 4 -5 1 -9 -5 -9 -6 0 -33
-36 -61 -80 l-51 -80 -71 63 c-39 34 -80 72 -90 85 -10 12 -23 20 -28 17 -16
-11 -10 11 21 66 39 71 96 245 115 355 8 49 15 146 15 225 0 97 3 139 11 139
33 0 -30 280 -93 415 -53 113 -76 149 -160 256 -125 159 -269 278 -443 364
-200 99 -361 137 -590 140 -332 4 -580 -63 -813 -219 -274 -183 -453 -436
-532 -750 -33 -133 -41 -202 -22 -198 11 2 12 -18 7 -100 -15 -227 49 -539
155 -763 104 -218 274 -411 476 -540 111 -71 300 -156 410 -184 22 -6 49 -21
60 -32 l19 -22 -50 7 c-79 11 -250 73 -365 132 -182 93 -341 229 -467 400
l-45 62 -77 -58 c-42 -32 -80 -56 -84 -53 -17 11 -80 118 -143 244 -35 71 -68
129 -73 129 -13 0 -78 205 -98 310 -26 137 -25 509 1 630 56 258 198 534 383
741 51 57 84 89 182 177 123 110 374 242 566 297 89 26 241 51 320 54 38 1 72
4 74 7 9 8 129 3 263 -11z m-1316 -149 c-63 -46 -231 -212 -299 -296 -84 -105
-191 -269 -237 -364 -124 -261 -199 -598 -186 -836 14 -252 67 -493 147 -671
28 -61 33 -66 74 -77 83 -22 121 -114 85 -202 -12 -30 -11 -33 22 -68 19 -20
62 -71 95 -112 75 -93 138 -153 223 -210 36 -24 112 -78 170 -120 179 -131
332 -210 540 -279 153 -51 294 -71 504 -71 l183 0 65 -57 66 -58 -51 -7 c-97
-12 -370 -8 -476 7 -231 33 -492 115 -671 212 -87 47 -299 188 -418 278 -70
53 -136 128 -275 310 -78 103 -85 110 -121 113 -53 5 -82 26 -101 75 -19 51
-15 94 14 143 21 35 21 37 4 63 -57 86 -124 297 -147 466 -26 193 -27 458 -3
605 34 203 142 492 252 677 112 187 245 343 409 479 l100 83 37 -27 36 -26
-41 -30z m3750 -20 c10 -8 16 -17 13 -20 -7 -7 -69 16 -69 26 0 13 35 9 56 -6z
m-5017 -101 c58 -61 70 -94 48 -128 -34 -52 -87 -19 -87 54 0 38 -5 51 -22 63
-52 37 -94 8 -108 -71 l-8 -48 -2 40 -3 40 -6 -40 c-5 -32 -11 -41 -29 -43
-27 -4 -52 14 -52 37 0 26 91 134 129 153 45 23 77 10 140 -57z m5004 15 c27
-17 60 -50 77 -77 26 -40 30 -57 30 -113 0 -58 -4 -73 -32 -114 -70 -107 -196
-134 -300 -66 -56 37 -89 95 -95 168 -7 77 31 150 101 199 42 29 56 33 110 33
52 0 70 -5 109 -30z m145 -11 c8 -12 12 -23 10 -25 -8 -7 -48 27 -48 41 0 19
22 10 38 -16z m-518 -89 c0 -19 -11 -26 -23 -14 -8 8 3 34 14 34 5 0 9 -9 9
-20z m560 0 c0 -5 -4 -10 -10 -10 -5 0 -10 5 -10 10 0 6 5 10 10 10 6 0 10 -4
10 -10z m-869 -287 c75 -108 197 -424 241 -622 18 -81 21 -130 22 -321 1 -245
-3 -293 -34 -450 -33 -163 -95 -342 -168 -482 -52 -102 -68 -125 -79 -116 -11
9 -7 22 21 72 118 213 210 539 222 786 6 137 13 190 25 190 14 0 11 40 -6 56
-8 9 -15 23 -14 32 0 11 2 12 6 5 2 -7 9 -13 14 -13 14 0 11 21 -5 34 -8 6
-17 31 -20 56 -3 25 -10 72 -16 105 -6 33 -13 76 -16 95 -14 82 -111 341 -185
495 -38 78 -54 125 -43 125 2 0 18 -21 35 -47z m-4566 -102 c76 -35 135 -115
135 -184 0 -36 -35 -127 -49 -127 -4 0 -15 8 -24 18 -15 16 -15 22 -1 61 27
78 -8 145 -91 177 -43 16 -48 16 -90 -1 -117 -44 -132 -189 -28 -260 21 -14
50 -25 64 -25 34 0 70 -46 44 -56 -31 -12 -106 4 -146 30 -76 51 -111 175 -74
264 44 103 160 149 260 103z m2758 -6 c318 -55 541 -245 651 -553 30 -84 31
-93 32 -259 1 -95 -2 -171 -6 -168 -4 3 -10 -14 -13 -36 -3 -22 -7 -43 -10
-45 -2 -2 -55 48 -118 111 l-114 116 -11 74 c-22 141 -54 207 -148 303 -121
125 -229 168 -401 160 -257 -13 -435 -162 -501 -418 -33 -130 6 -334 91 -465
53 -84 95 -126 315 -314 113 -97 275 -237 360 -311 85 -74 186 -162 224 -195
39 -33 124 -109 190 -169 67 -60 181 -161 255 -225 608 -526 1039 -909 1116
-992 44 -47 47 -54 30 -58 -11 -2 -57 -39 -103 -82 -46 -44 -87 -79 -92 -79
-4 0 -37 26 -72 58 -61 54 -371 327 -501 441 -34 29 -76 65 -92 80 -17 14
-102 89 -190 165 -88 77 -194 170 -235 206 -271 238 -340 299 -470 410 -80 68
-185 161 -235 205 -88 79 -364 313 -457 387 -148 120 -281 269 -324 365 -10
23 -23 43 -29 43 -25 1 -69 163 -81 296 -8 90 12 288 38 373 68 224 247 432
444 514 164 69 306 88 457 62z m2815 -77 c7 -7 12 -21 12 -33 0 -44 -60 -63
-80 -26 -14 27 -13 37 6 55 18 19 45 21 62 4z m-5598 -58 c22 -22 28 -88 10
-106 -7 -7 12 -32 61 -78 l71 -68 -21 -22 -22 -21 -78 83 c-42 45 -85 82 -94
82 -23 0 -47 39 -47 77 0 42 30 73 70 73 17 0 39 -9 50 -20z m5420 -115 c15
-18 4 -52 -21 -66 -41 -22 -89 37 -57 69 17 17 63 15 78 -3z m160 -114 c25
-47 -32 -100 -71 -65 -23 21 -24 33 -3 62 19 27 60 29 74 3z m-295 -85 c13
-19 14 -29 6 -45 -25 -45 -91 -33 -91 17 0 54 56 72 85 28z m463 -38 c7 -7 12
-21 12 -33 0 -28 -19 -45 -50 -45 -50 0 -68 47 -28 74 27 19 50 20 66 4z
m-5938 -153 c10 -12 10 -18 0 -30 -10 -11 -35 -15 -110 -15 -75 0 -100 4 -110
15 -10 12 -10 18 0 30 10 11 35 15 110 15 75 0 100 -4 110 -15z m337 -30 c4
-14 -311 -335 -329 -335 -7 0 -24 9 -38 20 -14 11 -30 20 -36 20 -13 0 -91
-81 -118 -123 -21 -31 -56 -36 -77 -11 -11 14 -1 27 80 105 99 95 120 103 167
72 l26 -16 141 142 c98 98 148 141 161 139 11 -2 21 -8 23 -13z m5443 -66 c93
-40 150 -140 136 -239 -6 -44 -22 -80 -35 -80 -4 0 -15 8 -24 18 -13 14 -14
25 -6 58 22 87 -40 184 -129 199 -53 9 -120 -20 -153 -66 -36 -51 -34 -133 5
-184 32 -42 95 -74 143 -75 41 0 68 -38 34 -47 -19 -5 -21 -13 -21 -74 0 -53
4 -71 15 -76 22 -8 45 -56 45 -92 0 -22 -10 -38 -39 -63 -37 -31 -42 -43 -91
-206 -50 -164 -52 -176 -40 -215 7 -23 14 -46 15 -52 8 -36 -57 -95 -105 -95
-30 0 -159 -199 -137 -211 8 -5 20 -22 27 -38 10 -25 10 -33 -3 -46 -21 -21
-44 -19 -52 5 -14 44 -95 38 -115 -9 -8 -21 -20 -30 -41 -33 -26 -4 -29 -2
-29 25 0 16 8 42 17 58 18 31 85 69 120 69 15 0 36 24 76 83 77 115 78 119 65
154 -21 55 15 118 73 130 18 3 29 14 36 36 6 18 32 97 57 177 l47 144 -25 19
c-51 37 -39 132 20 159 23 11 25 16 22 77 -3 64 -4 65 -33 71 -104 22 -175
111 -175 217 1 165 151 266 300 202z m-2483 -255 c103 -95 325 -295 493 -445
168 -150 373 -334 456 -408 82 -75 217 -194 298 -266 234 -205 278 -244 331
-294 28 -26 143 -131 258 -235 114 -104 207 -194 207 -201 0 -7 -10 -15 -22
-18 -13 -4 -59 -40 -103 -81 -44 -41 -83 -75 -87 -76 -7 0 -117 97 -358 316
-80 72 -224 200 -320 284 -172 151 -229 203 -360 324 -36 34 -122 111 -190
172 -283 252 -450 401 -530 474 -199 181 -334 295 -344 292 -6 -2 -8 -1 -4 3
8 9 -71 77 -81 70 -4 -2 -22 11 -40 29 l-32 33 107 102 c59 56 112 101 119 99
8 -2 98 -80 202 -174z m2458 119 c25 -25 27 -33 22 -80 l-6 -53 66 -60 c36
-33 70 -60 74 -60 5 0 9 -9 9 -20 0 -13 -9 -22 -27 -26 -24 -6 -34 0 -93 65
-52 57 -71 71 -93 71 -36 0 -97 58 -97 92 0 25 23 64 50 85 26 21 65 15 95
-14z m-5455 -399 l0 -365 -32 3 -33 3 -3 363 -2 362 35 0 35 0 0 -366z m-152
-141 l2 -223 -35 0 -35 0 0 218 c0 120 3 222 7 226 4 4 19 6 33 4 l25 -3 3
-222z m-148 -33 l0 -190 -35 0 -35 0 0 183 c0 101 3 187 7 190 3 4 19 7 35 7
l28 0 0 -190z m-152 -32 l-3 -153 -30 0 -30 0 -3 153 -3 152 36 0 36 0 -3
-152z m605 -101 c12 -37 -10 -62 -46 -53 -28 7 -38 31 -26 65 13 33 59 26 72
-12z m-193 -257 l0 -40 -178 0 c-182 0 -202 4 -202 40 0 36 20 40 202 40 l178
0 0 -40z m148 24 c15 -10 22 -24 20 -37 -3 -19 -11 -22 -55 -25 l-53 -3 0 40
c0 40 1 41 33 41 18 0 43 -7 55 -16z m-135 -182 c3 -4 3 -19 0 -35 l-5 -27
-117 2 c-64 0 -101 3 -83 5 57 7 34 22 -40 25 -60 2 -73 6 -76 21 -3 16 10 17
157 17 88 0 162 -3 164 -8z m221 -8 c3 -9 6 -24 6 -35 0 -18 -6 -20 -82 -17
l-83 3 -3 33 -3 32 79 0 c64 0 81 -3 86 -16z m575 -9 c37 -21 56 -41 91 -102
94 -159 293 -364 515 -530 164 -123 448 -253 680 -311 176 -45 289 -57 525
-56 217 1 309 10 506 50 25 5 32 2 36 -14 5 -16 -3 -21 -56 -31 -33 -7 -74
-14 -91 -17 -16 -2 -57 -9 -90 -14 -203 -31 -549 -18 -761 29 -472 105 -856
338 -1179 713 -52 61 -116 142 -141 182 -26 39 -58 83 -72 99 -32 34 -23 34
37 2z m-491 -167 c8 -10 -46 -13 -264 -13 -151 0 -274 3 -274 7 0 4 91 9 203
11 111 1 230 3 263 5 40 1 65 -2 72 -10z m17 -185 c-223 -7 -443 -7 -438 0 2
4 122 6 266 5 144 -1 222 -3 172 -5z m155 -400 c-158 -7 -328 -7 -323 0 2 4
91 6 196 5 106 -1 163 -3 127 -5z m514 -427 c36 -15 73 -57 82 -93 11 -44 -6
-114 -34 -141 -15 -14 -20 -22 -12 -17 9 5 12 5 7 -1 -5 -5 -12 -9 -15 -10 -4
0 -20 -4 -37 -9 -47 -14 -67 -11 -107 16 -83 54 -98 144 -36 215 48 55 90 66
152 40z m2638 -285 c88 -78 -18 -206 -121 -145 -30 18 8 33 -335 -130 -118
-56 -142 -64 -153 -53 -12 12 4 23 100 75 62 34 117 62 120 62 4 0 57 23 117
51 103 49 110 54 110 81 0 19 10 40 29 59 40 39 89 40 133 0z m-980 -47 c61
-31 90 -103 68 -170 l-13 -38 49 -45 c42 -38 55 -63 39 -80 -2 -2 -31 17 -64
42 l-60 45 -44 -16 c-38 -14 -51 -14 -88 -3 -25 8 -56 27 -73 46 l-29 33 -76
-21 c-42 -11 -78 -24 -79 -29 -2 -4 -7 -6 -12 -3 -4 3 -81 -14 -169 -36 l-162
-42 -72 21 c-117 34 -191 46 -195 33 -6 -18 -58 -41 -92 -41 -36 0 -76 35 -86
76 -14 54 42 114 107 114 25 0 79 -48 79 -71 0 -12 10 -21 28 -25 15 -4 76
-19 136 -34 l109 -27 151 39 c83 22 190 50 238 61 86 21 87 22 93 56 22 117
114 166 217 115z m279 -376 c67 -37 42 -102 -28 -73 -36 15 -49 45 -33 75 13
25 14 25 61 -2z"/>
<path d="M2925 7492 c-116 -56 -172 -153 -163 -283 17 -231 279 -340 452 -188
124 110 139 291 33 406 -57 62 -107 85 -192 90 -62 4 -77 1 -130 -25z m197
-18 c96 -37 158 -129 158 -232 0 -134 -88 -231 -224 -247 -165 -20 -302 147
-256 311 17 60 99 149 155 169 54 19 116 18 167 -1z"/>
<path d="M2996 7443 c-3 -3 -6 -17 -6 -30 0 -18 -5 -23 -25 -23 -14 0 -25 5
-25 10 0 19 -21 10 -29 -12 -11 -30 -3 -48 19 -48 17 0 19 -10 19 -95 0 -94 0
-95 -24 -95 -20 0 -25 -5 -25 -25 0 -22 4 -25 35 -25 24 0 35 -5 35 -15 0 -8
9 -15 20 -15 11 0 20 7 20 15 0 8 5 15 10 15 6 0 10 -7 10 -15 0 -8 7 -15 15
-15 8 0 15 7 15 15 0 10 10 15 28 15 60 0 110 65 91 119 -6 18 -9 41 -6 52 3
11 1 36 -5 55 -8 29 -17 39 -48 51 -30 12 -40 22 -42 42 -4 35 -32 34 -36 -1
-4 -35 -22 -37 -22 -4 0 26 -12 40 -24 29z m85 -113 c11 -6 19 -21 19 -35 0
-23 -4 -25 -45 -25 -38 0 -45 3 -45 19 0 49 27 64 71 41z m26 -116 c3 -8 1
-26 -5 -40 -10 -20 -19 -24 -52 -24 l-40 0 0 40 0 40 45 0 c32 0 47 -5 52 -16z"/>
<path d="M7059 7181 c-38 -39 -40 -88 -3 -125 57 -57 154 -20 154 59 0 48 -45
95 -90 95 -22 0 -41 -9 -61 -29z"/>
<path d="M3402 4435 c-32 -41 -7 -95 43 -95 48 0 73 70 37 103 -27 24 -58 21
-80 -8z"/>
<path d="M7535 6619 c-48 -34 -68 -69 -73 -124 -5 -59 10 -94 57 -139 25 -24
41 -30 88 -33 76 -5 120 18 151 78 59 112 -17 239 -142 239 -36 0 -60 -6 -81
-21z m146 -68 c23 -24 29 -38 29 -74 0 -24 -3 -47 -7 -50 -12 -12 -43 26 -43
53 0 50 -51 68 -85 30 -25 -27 -12 -65 30 -93 37 -24 44 -37 20 -37 -25 0 -72
28 -89 52 -9 12 -16 39 -16 59 0 29 7 43 31 63 43 36 91 35 130 -3z"/>
<path d="M8015 6060 c3 -5 8 -10 11 -10 2 0 4 5 4 10 0 6 -5 10 -11 10 -5 0
-7 -4 -4 -10z"/>
<path d="M2377 5996 c-14 -35 21 -67 43 -41 6 8 10 22 8 32 -4 23 -43 29 -51
9z"/>
<path d="M7680 5700 c0 -5 4 -10 9 -10 6 0 13 5 16 10 3 6 -1 10 -9 10 -9 0
-16 -4 -16 -10z"/>
<path d="M8160 5655 c-11 -13 -10 -14 4 -9 9 3 16 10 16 15 0 13 -6 11 -20 -6z"/>
<path d="M7935 4814 c-19 -20 -16 -43 8 -58 20 -13 50 2 55 26 3 16 -23 48
-38 48 -5 0 -16 -7 -25 -16z"/>
<path d="M7772 4268 c-29 -29 4 -76 42 -62 18 7 31 47 21 63 -8 15 -48 14 -63
-1z"/>
<path d="M5170 5126 c0 -2 8 -10 18 -17 15 -13 16 -12 3 4 -13 16 -21 21 -21
13z"/>
<path d="M7932 5268 c-35 -35 15 -99 53 -68 30 25 12 80 -25 80 -9 0 -21 -5
-28 -12z"/>
<path d="M3422 2897 c-12 -13 -22 -33 -22 -46 0 -27 42 -71 68 -71 33 0 72 38
72 71 0 62 -75 92 -118 46z"/>
<path d="M6060 2650 c-15 -28 4 -60 36 -60 31 0 54 41 34 65 -18 21 -57 19
-70 -5z"/>
<path d="M5070 2607 c-27 -14 -50 -51 -50 -82 0 -39 36 -82 75 -89 88 -17 141
90 76 155 -32 31 -61 36 -101 16z m76 -58 c13 -15 16 -24 8 -36 -20 -32 -41
-38 -63 -19 -25 23 -26 39 -5 60 21 21 37 20 60 -5z"/>
<path d="M4095 2476 c-21 -15 -17 -55 8 -70 25 -16 52 4 52 39 0 33 -33 51
-60 31z"/>
</g>
</svg>
