<?xml version="1.0" standalone="no"?>
<!DOCTYPE svg PUBLIC "-//W3C//DTD SVG 20010904//EN"
 "http://www.w3.org/TR/2001/REC-SVG-20010904/DTD/svg10.dtd">
<svg version="1.0" xmlns="http://www.w3.org/2000/svg"
 width="1024.000000pt" height="1024.000000pt" viewBox="0 0 1024.000000 1024.000000"
 preserveAspectRatio="xMidYMid meet">

<g transform="translate(0.000000,1024.000000) scale(0.100000,-0.100000)"
fill="#000000" stroke="none">
<path d="M0 5120 l0 -5120 5120 0 5120 0 0 5120 0 5120 -5120 0 -5120 0 0
-5120z m5471 3385 c526 -61 1109 -276 1564 -579 556 -369 955 -834 1247 -1451
98 -207 201 -525 252 -776 85 -416 78 -893 -19 -1345 -70 -324 -146 -545 -275
-799 -151 -297 -426 -701 -462 -678 -7 3 -8 1 -4 -5 9 -15 -94 -133 -108 -125
-6 3 -8 3 -4 -2 11 -11 -12 -36 -26 -28 -6 3 -8 2 -3 -2 9 -11 -41 -65 -60
-65 -8 0 -12 -3 -10 -7 3 -5 -8 -8 -24 -9 -37 -1 -44 -8 -30 -31 8 -15 10 -15
11 -2 0 9 7 16 15 16 11 0 5 -11 -16 -34 -33 -33 -53 -38 -28 -6 13 16 12 17
-3 4 -10 -7 -18 -21 -19 -30 0 -9 -3 -11 -5 -4 -3 7 -11 10 -17 7 -9 -3 -11
18 -9 81 3 80 2 85 -17 85 -14 0 -21 -6 -21 -20 0 -17 -7 -20 -40 -20 -33 0
-40 3 -40 20 0 13 7 20 20 20 13 0 20 7 20 20 0 18 -7 20 -72 20 -86 0 -118
-7 -118 -26 0 -9 12 -14 35 -14 28 0 35 -4 35 -20 0 -13 -7 -20 -20 -20 -13 0
-20 -7 -20 -20 0 -18 -7 -20 -80 -20 l-80 0 0 -40 0 -40 -40 0 c-33 0 -40 3
-40 20 0 11 5 20 10 20 6 0 10 5 10 11 0 5 -4 7 -10 4 -6 -3 -10 5 -10 19 0
14 -5 28 -11 31 -7 5 -3 16 12 31 12 13 26 21 30 18 5 -3 9 2 9 11 0 9 6 15
13 13 7 -2 12 0 12 3 0 13 28 38 36 33 5 -3 8 0 7 8 -2 7 3 12 9 11 7 -2 12 3
10 10 -1 6 4 11 11 10 6 -2 12 3 12 11 0 7 8 20 17 27 15 12 16 12 8 -1 -5 -9
-5 -12 1 -7 5 5 9 12 9 15 0 4 9 20 19 35 22 33 37 110 25 129 -5 7 -9 9 -9 4
0 -6 -14 4 -30 21 -26 27 -34 30 -63 23 -53 -13 -91 -30 -104 -47 -7 -9 -13
-12 -13 -6 0 6 37 57 83 113 45 56 89 113 98 126 9 13 27 36 40 52 59 66 238
363 324 537 135 272 205 464 264 725 61 270 98 597 107 965 l7 270 28 -27 c56
-57 160 -22 175 58 21 113 -86 178 -171 103 l-35 -31 -1 133 c0 74 -4 226 -9
339 -10 249 -18 277 -106 368 l-61 63 -6 87 c-9 128 -42 212 -113 288 -65 69
-149 107 -319 144 -284 62 -672 188 -1005 327 -160 67 -562 269 -745 375 -247
143 -308 168 -416 168 -107 0 -147 -17 -475 -201 -368 -207 -790 -397 -1154
-521 -135 -45 -213 -68 -570 -162 -74 -20 -163 -50 -197 -66 -103 -51 -176
-153 -203 -284 -17 -85 -19 -1110 -2 -1316 24 -295 80 -617 146 -848 37 -127
42 -149 51 -222 18 -140 94 -427 152 -570 84 -207 277 -559 394 -716 24 -33
43 -62 41 -66 -1 -5 2 -8 7 -8 7 0 161 -190 228 -283 12 -17 26 -33 30 -36 18
-13 93 -110 93 -120 0 -6 6 -11 13 -11 8 0 22 -10 33 -22 13 -16 14 -19 3 -10
-14 10 -17 10 -16 0 1 -43 -2 -46 -58 -44 -44 1 -58 6 -71 24 -8 12 -12 22 -7
23 4 0 -2 4 -15 9 -12 6 -22 18 -22 30 0 11 -5 20 -11 20 -5 0 -7 -5 -3 -12 4
-7 -7 -2 -24 11 -30 21 -46 41 -20 25 7 -4 8 -3 4 5 -4 6 -11 9 -16 6 -4 -2
-26 15 -49 40 -22 24 -41 42 -41 38 0 -3 -53 48 -117 114 -128 129 -329 375
-327 399 1 7 -2 12 -6 9 -16 -10 -202 300 -275 460 -32 70 -95 230 -149 377
-22 60 -56 88 -108 88 -30 0 -46 -7 -69 -29 -39 -39 -38 -83 2 -198 110 -313
250 -586 417 -815 37 -51 60 -93 56 -99 -4 -7 -3 -9 3 -6 12 8 36 -17 26 -26
-3 -4 -1 -7 4 -7 17 0 114 -121 106 -132 -3 -6 -1 -8 5 -4 11 7 75 -67 67 -78
-3 -3 -2 -4 2 -1 10 8 143 -127 136 -139 -3 -6 -3 -8 2 -4 4 4 38 -21 74 -56
36 -36 78 -74 94 -86 27 -22 28 -46 0 -36 -10 4 -14 0 -13 -17 4 -39 0 -47
-20 -47 -17 0 -20 7 -20 50 l0 50 -180 0 c-173 0 -180 1 -180 20 0 18 -7 20
-80 20 -73 0 -80 2 -80 20 0 18 -7 20 -80 20 -79 0 -80 0 -80 25 0 14 -4 25
-10 25 -5 0 -10 -4 -10 -10 0 -5 -7 -7 -16 -3 -13 5 -13 7 -2 14 9 6 7 9 -9 9
-13 0 -23 4 -23 8 0 12 -56 73 -62 67 -7 -7 -90 94 -84 103 2 4 0 14 -6 22 -8
12 -8 11 -3 -5 9 -29 -3 -15 -95 115 -229 322 -401 696 -500 1090 -73 293 -98
471 -106 785 -12 402 45 767 178 1154 237 686 734 1333 1345 1748 342 232 746
415 1132 513 234 59 369 81 641 104 83 7 414 -5 541 -19z m-246 -568 c33 -18
118 -66 188 -106 630 -355 1107 -547 1821 -732 180 -46 218 -76 236 -184 5
-33 13 -226 16 -430 19 -1066 -96 -1668 -449 -2350 -365 -704 -966 -1298
-1684 -1665 -222 -113 -258 -113 -487 2 -400 200 -684 405 -996 717 -379 380
-636 766 -855 1286 -73 174 -113 289 -150 437 -115 453 -140 706 -139 1403 1
529 7 631 45 692 12 18 34 40 49 48 16 8 122 37 235 65 569 138 1043 327 1659
663 160 87 309 164 331 172 66 23 113 18 180 -18z m-2757 -5087 c7 -11 11 -20
9 -20 -2 0 -12 9 -22 20 -10 11 -14 20 -9 20 5 0 15 -9 22 -20z m63 -77 c13
-16 12 -17 -3 -4 -10 7 -18 15 -18 17 0 8 8 3 21 -13z m1204 -62 c3 -5 1 -12
-5 -16 -5 -3 -10 1 -10 9 0 18 6 21 15 7z m-35 -35 c0 -3 -4 -8 -10 -11 -5 -3
-10 -1 -10 4 0 6 5 11 10 11 6 0 10 -2 10 -4z m90 -21 c13 -14 21 -25 18 -25
-2 0 -15 11 -28 25 -13 14 -21 25 -18 25 2 0 15 -11 28 -25z m-570 -5 c0 -5
-4 -10 -10 -10 -5 0 -10 5 -10 10 0 6 5 10 10 10 6 0 10 -4 10 -10z m3727 -12
c2 -15 -4 -19 -27 -16 -16 2 -28 -1 -27 -7 1 -5 5 -9 10 -7 9 3 9 -20 -1 -34
-4 -6 -15 -11 -24 -11 -14 0 -15 4 -6 20 9 17 8 19 -8 14 -11 -4 -2 8 18 26
42 38 63 43 65 15z m-3591 -19 c24 -27 51 -41 94 -50 34 -7 34 -7 -11 -8 -40
-1 -49 3 -63 24 -9 14 -20 24 -24 21 -5 -3 -14 -1 -22 5 -13 7 -13 9 0 9 13 0
13 1 0 10 -8 5 -10 10 -4 10 6 0 19 -9 30 -21z m-616 -29 c0 -5 0 -12 0 -15 0
-3 -2 -5 -5 -5 -3 0 -5 3 -4 7 0 4 -8 10 -18 14 -16 7 -15 8 5 8 12 1 22 -3
22 -9z m775 -20 c3 -5 -1 -10 -10 -10 -9 0 -13 5 -10 10 3 6 8 10 10 10 2 0 7
-4 10 -10z m3327 -42 c-4 -48 -4 -48 -42 -48 -34 0 -37 2 -33 25 3 13 10 23
17 22 6 -1 10 4 8 11 -1 8 1 11 6 8 5 -3 16 4 26 15 10 12 19 19 20 17 1 -1 1
-24 -2 -50z m-2918 4 c2 -4 -5 -9 -17 -9 -17 -2 -19 0 -7 7 18 12 18 12 24 2z
m3496 -37 c-27 -27 -38 -32 -50 -24 -13 9 -13 10 2 6 18 -6 52 25 41 38 -5 4
-2 5 5 1 7 -4 15 -1 18 9 4 9 9 13 12 10 3 -3 -10 -21 -28 -40z m-4611 14 c13
-11 22 -21 20 -23 -2 -3 -17 7 -32 20 -15 13 -24 24 -20 24 4 -1 19 -10 32
-21z m4541 -74 c0 -2 -7 -8 -15 -15 -12 -10 -15 -10 -15 2 0 8 7 15 15 15 8 0
15 -1 15 -2z m-75 -44 c3 -5 0 -13 -6 -17 -7 -4 -9 -3 -5 4 3 5 0 13 -6 15 -9
4 -10 6 -1 6 6 1 14 -3 18 -8z m-4255 -35 c0 -3 -4 -8 -10 -11 -5 -3 -10 -1
-10 4 0 6 5 11 10 11 6 0 10 -2 10 -4z m18 -25 c-2 -4 8 -18 22 -31 l25 -22
-33 22 c-18 12 -30 26 -27 31 8 11 16 12 13 0z m4147 -21 c-3 -5 -14 -10 -23
-9 -14 0 -13 2 3 9 27 11 27 11 20 0z m-72 -47 c-3 -7 -15 -18 -27 -24 -18 -9
-19 -8 -5 3 9 7 14 18 12 24 -2 6 3 11 11 11 8 0 12 -6 9 -14z m-3918 -53 c3
-6 -1 -7 -9 -4 -18 7 -21 14 -7 14 6 0 13 -4 16 -10z m112 -65 c1 -11 -17 -8
-30 4 -4 4 0 7 10 6 10 0 19 -5 20 -10z m64 -42 c13 -17 13 -17 -6 -3 -11 8
-22 16 -24 17 -2 2 0 3 6 3 6 0 17 -8 24 -17z m2823 -4 c-3 -6 -13 -8 -22 -4
-8 3 -19 0 -24 -7 -7 -10 -8 -9 -5 2 2 9 14 14 26 13 15 -2 20 1 15 9 -4 7 -3
8 5 4 6 -4 9 -12 5 -17z"/>
<path d="M2164 5951 c-36 -22 -58 -75 -48 -115 3 -15 19 -40 34 -56 23 -25 36
-30 73 -30 39 0 49 5 76 35 45 51 44 104 -3 151 -40 40 -83 45 -132 15z"/>
<path d="M2163 5230 c-13 -5 -32 -24 -43 -42 -69 -113 67 -239 159 -148 91 91
1 237 -116 190z"/>
<path d="M7963 5230 c-32 -13 -63 -68 -63 -113 0 -54 52 -107 104 -107 46 0
103 48 112 95 16 87 -71 158 -153 125z"/>
<path d="M7872 4574 c-31 -21 -34 -30 -92 -219 -100 -327 -254 -647 -433 -899
-65 -92 -73 -115 -52 -159 35 -74 117 -74 185 -1 109 118 291 441 398 704 81
201 152 426 152 483 0 83 -93 137 -158 91z"/>
<path d="M3298 2972 c9 -10 19 -17 21 -16 6 5 -20 34 -30 34 -5 0 -1 -8 9 -18z"/>
<path d="M3370 2911 c0 -10 19 -25 25 -20 1 2 -3 10 -11 17 -8 7 -14 8 -14 3z"/>
<path d="M3045 2890 c3 -5 8 -10 11 -10 2 0 4 5 4 10 0 6 -5 10 -11 10 -5 0
-7 -4 -4 -10z"/>
<path d="M2535 2830 c3 -5 10 -10 16 -10 5 0 9 5 9 10 0 6 -7 10 -16 10 -8 0
-12 -4 -9 -10z"/>
<path d="M7213 2812 c-1 -22 0 -24 9 -8 6 10 6 22 2 26 -5 5 -10 -3 -11 -18z"/>
<path d="M7291 2835 c1 -19 18 -51 18 -35 0 8 -4 22 -9 30 -5 8 -9 11 -9 5z"/>
<path d="M3190 2751 c0 -6 5 -11 11 -11 5 0 7 -4 4 -10 -3 -5 0 -10 8 -10 14
0 59 -45 52 -52 -2 -2 5 -5 17 -5 11 -1 19 -1 17 1 -2 1 -28 24 -56 51 -29 26
-53 43 -53 36z"/>
<path d="M7038 2673 c7 -3 16 -2 19 1 4 3 -2 6 -13 5 -11 0 -14 -3 -6 -6z"/>
<path d="M7565 2670 c-3 -6 1 -7 9 -4 18 7 21 14 7 14 -6 0 -13 -4 -16 -10z"/>
<path d="M7000 2636 c0 -9 5 -16 10 -16 6 0 10 4 10 9 0 6 -4 13 -10 16 -5 3
-10 -1 -10 -9z"/>
<path d="M5045 7651 c-22 -10 -96 -50 -165 -90 -241 -138 -659 -335 -1000
-471 -221 -88 -690 -230 -757 -230 -20 0 -92 -69 -114 -110 -11 -19 -15 -100
-17 -355 -4 -341 4 -494 39 -785 28 -234 34 -272 85 -490 81 -347 160 -556
327 -865 118 -217 230 -385 387 -576 316 -387 668 -675 1129 -924 l144 -78 66
33 c173 85 446 263 651 426 152 121 490 454 590 582 410 525 635 1053 759
1787 66 390 82 1128 27 1260 -20 47 -63 95 -85 95 -35 0 -341 83 -504 136
-389 128 -757 289 -1162 510 -335 182 -327 179 -400 145z m270 -875 c184 -59
350 -199 430 -363 62 -127 85 -236 85 -405 l0 -148 -105 0 -105 0 0 128 c-1
262 -59 391 -233 513 -93 65 -172 89 -291 89 -181 -1 -335 -88 -437 -248 -54
-86 -69 -156 -69 -328 l0 -154 -110 0 -110 0 0 153 c0 118 5 171 20 237 64
268 260 464 540 540 106 29 272 23 385 -14z m-1787 -377 c58 -20 78 -84 46
-148 -8 -17 -24 -36 -34 -41 -25 -14 -82 -12 -100 3 -25 19 -50 60 -50 80 0
36 33 89 64 103 38 16 36 16 74 3z m3249 -14 c32 -23 47 -77 33 -120 -32 -98
-180 -78 -197 27 -5 33 -2 41 30 73 28 28 43 35 74 35 21 0 48 -7 60 -15z
m-888 -763 c30 -10 56 -22 57 -27 2 -6 -18 -25 -44 -42 l-48 -33 52 -55 c29
-31 65 -81 81 -113 l28 -57 3 -483 3 -484 -25 -53 c-31 -69 -97 -140 -161
-173 l-50 -27 -664 -3 c-772 -3 -726 -8 -826 92 -33 34 -65 70 -71 80 -10 19
-13 18 -78 -18 -38 -20 -70 -35 -72 -33 -3 2 -11 35 -19 73 -12 55 -15 164
-15 530 0 269 4 483 10 514 28 150 134 272 273 315 33 11 197 14 777 14 664 0
740 -2 789 -17z m-718 -2161 c64 -65 20 -161 -74 -161 -45 1 -67 13 -85 47
-20 36 -14 79 14 112 22 26 33 31 71 31 36 0 50 -6 74 -29z"/>
<path d="M4975 5253 c-91 -37 -171 -117 -201 -200 -32 -91 -7 -245 52 -311
l23 -27 1 30 0 30 37 -37 c28 -28 34 -40 26 -50 -12 -14 -116 -399 -110 -405
2 -1 14 8 27 22 l23 25 250 0 249 0 -7 28 c-25 98 -75 320 -75 333 0 9 15 28
34 43 53 40 86 116 86 197 0 64 1 67 26 73 22 6 25 11 19 34 -16 69 -102 162
-185 201 -70 33 -212 41 -275 14z"/>
</g>
</svg>
